<svg xmlns="http://www.w3.org/2000/svg" width="1000" height="1000" viewBox="0 0 1000 850"><path fill="#cccdcf" d="M793.432 662.59 655.74 749.421a56.955 56.955 0 0 1-47.809 6.048L457 706.953a56.955 56.955 0 0 0-48.072 6.215l-110.5 70.537c-12.049 7.613-27.988 4.017-35.6-8.032a25.849 25.849 0 0 1-3-6.704l-95.37-334.34a25.808 25.808 0 0 1 11.03-28.893l139.16-87.949a62.365 62.365 0 0 1 52.4-6.655L513.163 358.1a62.365 62.365 0 0 0 52.566-6.758l104.638-66.589c12.025-7.651 27.976-4.106 35.627 7.919a25.806 25.806 0 0 1 3.044 6.774l95.355 334.294a25.806 25.806 0 0 1-10.961 28.85z" opacity=".4"/><path fill="#fff" d="M798.808 627.107 681.23 701.929a62.365 62.365 0 0 1-52.566 6.758l-146.125-46.968a62.369 62.369 0 0 0-52.4 6.654L303.8 748.222c-12.049 7.613-27.988 4.017-35.6-8.032a25.849 25.849 0 0 1-3-6.704l-95.369-334.34a25.807 25.807 0 0 1 11.029-28.893L320.013 282.3a62.369 62.369 0 0 1 52.4-6.654l146.124 46.969a62.362 62.362 0 0 0 52.566-6.759l104.638-66.588c12.025-7.651 27.976-4.106 35.627 7.919a25.806 25.806 0 0 1 3.044 6.774l95.355 334.292a25.807 25.807 0 0 1-10.959 28.854z"/><path fill="#eaf4f7" d="M468.513 623.926 446.65 562.24l-103.319 35.371-32.307-93.606-84.151 16.748 59 206.834a4.335 4.335 0 0 0 4.184 3.137 4.113 4.113 0 0 0 2.251-.681l120.114-75.913c-.522-.611 56.091-30.204 56.091-30.204z"/><g fill="#363a5a"><path d="M290.059 755.24a28.929 28.929 0 0 1-10.325-1.921 28.556 28.556 0 0 1-17.427-19.009l-95.369-334.341a28.968 28.968 0 0 1 12.311-32.252l139.161-87.949a65.203 65.203 0 0 1 54.923-6.975l146.124 46.969a59.203 59.203 0 0 0 50.037-6.433l104.639-66.588c13.421-8.542 31.225-4.586 39.767 8.835a28.784 28.784 0 0 1 3.399 7.565l95.355 334.293a28.98 28.98 0 0 1-12.236 32.2L682.84 704.46a65.18 65.18 0 0 1-55.094 7.084l-146.125-46.969a59.21 59.21 0 0 0-49.881 6.334L305.4 750.758a28.645 28.645 0 0 1-15.341 4.482zM353.3 275.645a59.228 59.228 0 0 0-31.68 9.195l-139.166 87.949a22.934 22.934 0 0 0-9.747 25.534l95.369 334.34c3.455 12.112 16.074 19.131 28.187 15.676a22.786 22.786 0 0 0 5.929-2.653l126.343-79.849a65.2 65.2 0 0 1 54.922-6.975l146.125 46.969a59.192 59.192 0 0 0 50.037-6.434L797.2 624.575l1.611 2.531-1.611-2.531a22.944 22.944 0 0 0 9.688-25.5l-95.359-334.288c-3.454-12.113-16.073-19.132-28.186-15.678a22.792 22.792 0 0 0-5.989 2.691l-104.639 66.591a65.18 65.18 0 0 1-55.094 7.083L371.5 278.505a59.465 59.465 0 0 0-18.2-2.86z"/><path d="M360.065 587.576a2 2 0 0 1-.5-3.936c.018 0 1.8-.471 4.754-1.334a2.001 2.001 0 0 1 1.123 3.841c-3.013.88-4.794 1.345-4.869 1.365a2.074 2.074 0 0 1-.508.064zm19.351-6.003a2 2 0 0 1-.657-3.889 260.176 260.176 0 0 0 9.488-3.5 2 2 0 0 1 1.455 3.727 273.249 273.249 0 0 1-9.629 3.546 1.989 1.989 0 0 1-.657.116zM403 572a2 2 0 0 1-.866-3.8c3.2-1.537 6.19-3.1 8.883-4.659a2.001 2.001 0 0 1 2 3.465c-2.78 1.6-5.859 3.219-9.153 4.8-.27.128-.565.195-.864.194zm21.438-13.565a2 2 0 0 1-1.357-3.468 25.57 25.57 0 0 0 5.8-7.359 2 2 0 0 1 3.6 1.743 29.503 29.503 0 0 1-6.685 8.553 1.99 1.99 0 0 1-1.357.534zM568.979 539.5h-.222a2 2 0 1 1 0-4h.249c.842 0 1.728-.018 2.636-.055a17.788 17.788 0 0 0 6.3-1.182 2 2 0 1 1 1.623 3.656 21.316 21.316 0 0 1-7.764 1.522c-.96.039-1.901.059-2.822.059zm-15.133-2.28c-.222 0-.442-.037-.651-.11a35.105 35.105 0 0 1-9.432-4.913 2 2 0 1 1 2.372-3.22 31.135 31.135 0 0 0 8.362 4.35 2 2 0 0 1-.651 3.893zm-124.3-1.272a1.999 1.999 0 0 1-1.8-1.135c-1.179-2.456-2.763-5.316-4.845-8.744a2.001 2.001 0 0 1 3.42-2.076c2.149 3.541 3.8 6.515 5.031 9.09a1.999 1.999 0 0 1-1.8 2.865zm154-11.147a2 2 0 0 1-1.992-1.847c-.08-1.049-.183-2.142-.288-3.275-.206-2.2-.419-4.478-.53-6.931a2.002 2.002 0 1 1 4-.182c.107 2.358.315 4.585.516 6.741.108 1.156.212 2.271.294 3.34a2 2 0 0 1-1.84 2.148h-.001c-.064.005-.116.005-.167.005zm-48.579-3.5a2 2 0 0 1-1.713-.964 70.448 70.448 0 0 1-4.683-9.337 2 2 0 0 1 3.69-1.545 66.373 66.373 0 0 0 4.407 8.819 2 2 0 0 1-1.709 3.036zm-118.651-7.123a1.998 1.998 0 0 1-1.662-.885c-1.825-2.716-3.743-5.53-5.719-8.415a2 2 0 0 1 3.3-2.262c1.983 2.9 3.909 5.721 5.739 8.446a2 2 0 0 1-1.658 3.116zm167.826-14.656a1.999 1.999 0 0 1-1.933-2.518 42.386 42.386 0 0 1 4.038-9.846 2 2 0 1 1 3.483 1.967 38.39 38.39 0 0 0-3.658 8.915 2 2 0 0 1-1.938 1.487zm-58.768-1.714a2 2 0 0 1-1.911-1.415 672.174 672.174 0 0 1-2.568-8.661l-.332-1.138a2 2 0 1 1 3.84-1.121l.332 1.139c.852 2.921 1.692 5.8 2.552 8.611a2 2 0 0 1-1.913 2.585zm-123.428-4.677a1.999 1.999 0 0 1-1.656-.874c-1.9-2.8-3.817-5.626-5.71-8.467a2 2 0 0 1 3.33-2.218 959.583 959.583 0 0 0 5.687 8.433 2 2 0 0 1-1.651 3.126zm195.538-14.844a2 2 0 0 1-1.372-3.457 76.923 76.923 0 0 1 8.088-6.586 2 2 0 1 1 2.32 3.258 72.702 72.702 0 0 0-7.666 6.241c-.372.353-.866.55-1.379.549zm-79.485-4.863a2 2 0 0 1-1.9-1.368 170.983 170.983 0 0 0-3.441-9.46 1.999 1.999 0 1 1 3.713-1.484c1.2 2.988 2.348 6.155 3.523 9.681a2.001 2.001 0 0 1-1.901 2.632h.006zm-130.059-1.577a2.001 2.001 0 0 1-1.7-.941 327.787 327.787 0 0 1-5.3-8.779 2 2 0 0 1 3.459-2.009 318.806 318.806 0 0 0 5.235 8.669 2 2 0 0 1-1.694 3.06zm230.462-7.862a1.999 1.999 0 0 1-.925-3.775c2.907-1.511 6.034-3 9.294-4.438a2 2 0 0 1 1.609 3.662c-3.18 1.4-6.227 2.853-9.058 4.325-.286.151-.605.23-.928.231zm23.359-9.983a2 2 0 0 1-.67-3.884c.55-.196 1.106-.391 1.667-.586a8.768 8.768 0 0 0 4.9-4.61 1.999 1.999 0 1 1 3.551 1.837 12.736 12.736 0 0 1-7.136 6.552c-.554.192-1.1.383-1.639.575-.219.08-.449.121-.682.121zm-133.791-3.916a2 2 0 0 1-1.74-1.012 82.567 82.567 0 0 0-5.395-8.314 2 2 0 1 1 3.215-2.381 86.644 86.644 0 0 1 5.65 8.721 2 2 0 0 1-1.737 2.989zm-132.495-.448a1.999 1.999 0 0 1-1.807-1.14c-1.62-3.4-2.978-6.617-4.038-9.566a2 2 0 1 1 3.751-1.391l.014.038c1.015 2.824 2.322 5.919 3.885 9.2a2 2 0 0 1-.945 2.666c-.27.131-.567.199-.867.198zm276.865-16.651h-.04a2 2 0 0 1-1.959-2.04v-.001c.011-.508.016-1.02.016-1.536 0-2.576-.132-5.408-.393-8.417a2 2 0 0 1 3.984-.346c.272 3.124.409 6.072.409 8.763 0 .544-.005 1.083-.016 1.618a2 2 0 0 1-2.001 1.959zm-160.149-2.629a1.996 1.996 0 0 1-1.325-.5 70.093 70.093 0 0 0-7.807-5.986 2.001 2.001 0 0 1 2.207-3.337 74.43 74.43 0 0 1 8.253 6.329 2 2 0 0 1-1.328 3.5zm-123.624-4.986h-.067a2 2 0 0 1-1.935-2.063v-.001a16.526 16.526 0 0 1 3.819-10.643 2 2 0 0 1 3.079 2.553c-.021.026-.044.051-.066.076a12.496 12.496 0 0 0-2.834 8.143 2 2 0 0 1-1.996 1.935zm102.189-8.263c-.264 0-.525-.052-.769-.154a94.21 94.21 0 0 0-9.343-3.312 2 2 0 1 1 1.142-3.834 98.454 98.454 0 0 1 9.74 3.454 2 2 0 0 1-.77 3.846zm-24.349-6.746c-.109 0-.218-.009-.326-.027a149.331 149.331 0 0 0-9.924-1.279 2 2 0 1 1 .383-3.981c3.49.335 6.919.777 10.189 1.314a2 2 0 0 1-.322 3.973zm-60.783-.152a2 2 0 0 1-.224-3.987c3.444-.393 6.871-.733 10.186-1.011a2 2 0 0 1 .334 3.987c-3.275.274-6.662.61-10.066 1a1.957 1.957 0 0 1-.23.011zm25.364-1.878a2 2 0 0 1-.058-4c3.483-.1 6.945-.13 10.261-.08a2 2 0 1 1-.06 4 227.984 227.984 0 0 0-10.084.079zm238.89-.635a2 2 0 0 1-1.967-1.647 249.03 249.03 0 0 0-1.995-9.9 2 2 0 0 1 3.9-.866c.77 3.465 1.452 6.85 2.029 10.059a2 2 0 0 1-1.615 2.322h-.001a2.066 2.066 0 0 1-.351.034zm-5.899-25.471a2 2 0 0 1-1.925-1.462c-.826-2.949-1.378-4.724-1.383-4.742a2 2 0 1 1 3.818-1.19c.024.074.573 1.843 1.416 4.854a2 2 0 0 1-1.926 2.54z"/></g><circle cx="353.612" cy="588.178" r="48.192" fill="#3dc0cb" opacity=".22"/><circle cx="353.612" cy="588.178" r="27.946" fill="#3dc0cb"/><path fill="#64c7cf" d="M353.612 560.232a27.901 27.901 0 0 0-22.158 10.924c12.763-8.675 30.142-5.361 38.817 7.402a27.942 27.942 0 0 1-.957 32.737c12.767-8.673 16.087-26.053 7.414-38.82a27.946 27.946 0 0 0-23.114-12.243z"/><path fill="#363a5a" d="M353.611 619.123c-17.091-.001-30.946-13.856-30.945-30.947s13.856-30.946 30.947-30.945c17.091 0 30.946 13.856 30.945 30.947-.019 17.083-13.864 30.927-30.947 30.945zm0-55.891c-13.777.001-24.946 11.17-24.945 24.947s11.17 24.946 24.947 24.945c13.777 0 24.945-11.169 24.945-24.946-.015-13.771-11.176-24.931-24.947-24.946z"/><path fill="#87d5f7" stroke="#259ad6" stroke-linecap="round" stroke-linejoin="round" stroke-width="4" d="m366.347 338.84 80.153 15.193-18.407-32.352-66.339-23.145a30.94 30.94 0 0 0-23.645 1.352l-145.767 88.543a4.326 4.326 0 0 0-1.839 4.816l23.508 82.412 64.089-15.847-11.77-47.212z"/><path fill="#fddcbf" stroke="#ecb072" stroke-linecap="round" stroke-linejoin="round" stroke-width="4" d="m493.37 542.929 45.739 11.516 22.113 50.681-49.273-8.077z"/><path fill="#eaf4f7" d="M643.426 391.11c-37.157 0-67.278-10.776-67.278-24.069s30.121-24.07 67.278-24.07 67.277 10.777 67.277 24.07-30.121 24.069-67.277 24.069z"/><path fill="#fddcbf" stroke="#ecb072" stroke-linecap="round" stroke-linejoin="round" stroke-width="4" d="m664.538 527.486 83.927-36.534 33.155 101.009-135.902 77.232-24.91-70.3 53.14-29.891z"/><path fill="#ee4637" d="M742.481 249.681c0-57.8-46.914-104.344-103.761-101.642-50.9 2.42-94.292 45.782-94.292 98.124 0 75.717 99 134.1 99 134.1s99.053-58.383 99.053-130.582z"/><path fill="#cd3c27" d="M679.585 350.964c-16.066 12.534-38.62 12.456-54.6-.188-29.3-23.2-71.677-65.323-71.677-114.86a96.3 96.3 0 0 1 19.808-58.17c-17.573 17.746-28.689 41.93-28.689 68.417 0 75.717 99 134.1 99 134.1s40.374-23.8 69.571-59.8a282.937 282.937 0 0 1-33.413 30.501z"/><path fill="#f07378" d="M638.72 148.039a97.984 97.984 0 0 0-49.9 16.723 96.757 96.757 0 0 1 37.234-9.485c56.847-2.7 103.762 43.841 103.762 101.642 0 56.61-60.894 104.724-87.192 122.863.515.314.8.484.8.484s99.055-58.386 99.055-130.585c.002-57.8-46.912-104.344-103.759-101.642z"/><path fill="#fff" d="M643.426 288.605c-22.509.001-40.756-18.246-40.757-40.755s18.246-40.756 40.755-40.757 40.756 18.246 40.757 40.755v.001c0 22.509-18.246 40.755-40.755 40.756z"/><path fill="#363a5a" d="M643.426 291.605c-24.166.001-43.756-19.589-43.757-43.755s19.589-43.756 43.755-43.757 43.756 19.589 43.757 43.755v.001c-.027 24.154-19.601 43.728-43.755 43.756zm0-81.511c-20.852-.001-37.756 16.903-37.757 37.755s16.903 37.756 37.755 37.757 37.756-16.903 37.757-37.755v-.002c-.025-20.841-16.914-37.73-37.755-37.755z"/><path fill="#363a5a" d="M643.426 383.266a2.998 2.998 0 0 1-1.525-.416 300.43 300.43 0 0 1-50.065-39.091c-32.978-32.059-50.408-65.807-50.408-97.6 0-53.212 43.581-98.575 97.149-101.122a99.856 99.856 0 0 1 74.295 27.877 106.42 106.42 0 0 1 32.609 76.762c0 30.361-17.448 63.051-50.457 94.538a311.5 311.5 0 0 1-50.075 38.632 3.012 3.012 0 0 1-1.523.42zm.021-232.339c-1.525 0-3.054.036-4.585.109-24.056 1.143-46.866 11.6-64.225 29.436-17.546 18.03-27.209 41.36-27.209 65.692 0 20.989 8.414 54.2 48.5 93.205a299.072 299.072 0 0 0 47.5 37.38c12.407-7.728 96.056-62.268 96.056-127.068a100.396 100.396 0 0 0-30.75-72.42 93.961 93.961 0 0 0-65.287-26.334z"/></svg>