<svg xmlns="http://www.w3.org/2000/svg" width="1000" height="1000" viewBox="150 150 650 650"><g data-name="Layer 1" style="isolation:isolate"><rect width="638.331" height="18" x="160.161" y="648.303" fill="#c9c9c9" rx="9"/><path fill="#cecece" d="M285.891 573.289a17.343 17.343 0 0 1 0-34.685h98.034v34.685Z"/><path fill="#fff" d="M285.891 532.6H389.6v46.685H285.891a23.342 23.342 0 0 1-23.342-23.342 23.342 23.342 0 0 1 23.342-23.343Z"/><path fill="#1f3969" d="M383.925 552.567H279.549a2 2 0 0 1 0-4h104.376a2 2 0 0 1 0 4Zm0 10.591H279.549a2 2 0 0 1 0-4h104.376a2 2 0 1 1 0 4Z"/><path fill="#1f3969" d="M383.925 575.289h-98.034a19.343 19.343 0 0 1 0-38.685h98.034a2 2 0 0 1 2 2v34.685a2 2 0 0 1-2 2ZM285.891 540.6a15.343 15.343 0 0 0 0 30.685h96.034V540.6Z"/><path fill="#ff3e3e" d="M285.891 573.289a17.343 17.343 0 0 1 0-34.685H385.6l4-6H285.891a23.342 23.342 0 0 0-23.342 23.342 23.342 23.342 0 0 0 23.342 23.343H389.6l-4-6Z"/><path fill="#1f3969" d="M389.6 581.289H285.891a25.343 25.343 0 0 1 0-50.685H389.6a2 2 0 0 1 1.664 3.109l-4 6a2 2 0 0 1-1.664.891h-99.709a15.343 15.343 0 0 0 0 30.685H385.6a2 2 0 0 1 1.664.891l4 6a2 2 0 0 1-1.664 3.109ZM285.891 534.6a21.343 21.343 0 0 0 0 42.685h99.976l-1.334-2h-98.642a19.343 19.343 0 0 1 0-38.685h98.642l1.334-2Z"/><g fill="#1f3969" opacity=".28"><path d="M348.914 532.604h18.391v46.685h-18.391z"/><path d="M367.305 581.289h-18.391a2 2 0 0 1-2-2V532.6a2 2 0 0 1 2-2h18.391a2 2 0 0 1 2 2v46.685a2 2 0 0 1-2 2.004Zm-16.391-4h14.391V534.6h-14.391Z"/></g><rect width="203.426" height="38.557" x="182.27" y="579.289" fill="#50b56f" rx="6.761"/><path fill="#1f3969" d="M378.935 619.846h-189.9a8.772 8.772 0 0 1-8.762-8.761V586.05a8.772 8.772 0 0 1 8.762-8.761h189.9a8.771 8.771 0 0 1 8.761 8.761v25.035a8.771 8.771 0 0 1-8.761 8.761Zm-189.9-38.557a4.767 4.767 0 0 0-4.762 4.761v25.035a4.767 4.767 0 0 0 4.762 4.761h189.9a4.767 4.767 0 0 0 4.761-4.761V586.05a4.767 4.767 0 0 0-4.761-4.761Z"/><g fill="#1f3969" opacity=".28"><path d="M378.935 579.289h-30.021v15a17.06 17.06 0 0 0 17.061 17.061h19.708c0-.087.013-.173.013-.261V586.05a6.761 6.761 0 0 0-6.761-6.761Z"/><path d="M385.683 613.347h-19.708a19.083 19.083 0 0 1-19.061-19.062v-15a2 2 0 0 1 2-2h30.021a8.771 8.771 0 0 1 8.761 8.761v25.035c0 .1-.005.2-.012.294a2.1 2.1 0 0 1-2.001 1.972Zm-34.769-32.058v13a15.078 15.078 0 0 0 15.061 15.062h17.718v-23.3a4.767 4.767 0 0 0-4.761-4.761Z"/></g><path fill="#cecece" d="M432.39 625.587H212.442a32.774 32.774 0 0 1 0 22.716H432.39a32.789 32.789 0 0 1 0-22.716Z"/><path fill="#5f5aff" d="M206.485 619.543h231.87v6.044h-231.87z"/><path fill="#1f3969" d="M438.355 627.587h-231.87a2 2 0 0 1-2-2v-6.044a2 2 0 0 1 2-2h231.87a2 2 0 0 1 2 2v6.044a2 2 0 0 1-2 2Zm-229.87-4h227.87v-2.044h-227.87Z"/><path fill="#f6f9fd" d="M206.485 648.303h231.87v6.044h-231.87z"/><path fill="#5f5aff" d="M206.485 648.303h231.87v6.044h-231.87z"/><path fill="#1f3969" d="M438.355 656.347h-231.87a2 2 0 0 1-2-2V648.3a2 2 0 0 1 2-2h231.87a2 2 0 0 1 2 2v6.044a2 2 0 0 1-2 2.003Zm-229.87-4h227.87V650.3h-227.87Z"/><path fill="#bfcfe2" d="m553.631 633-3.013-33.652H501.21L498.2 633c-.7 7.816-5.4 15.3-12.777 21.276l-.009.072h81.007l-.009-.072c-7.377-5.976-12.081-13.462-12.781-21.276Z"/><g fill="#1f3969" opacity=".28"><path d="m501.21 599.346-1.809 20.197h53.025l-1.808-20.197H501.21z"/><path d="M552.427 621.543H499.4a2 2 0 0 1-1.992-2.179l1.809-20.2a2 2 0 0 1 1.992-1.821h49.408a2 2 0 0 1 1.992 1.821l1.809 20.2a2 2 0 0 1-1.992 2.179Zm-50.839-4h48.651l-1.45-16.2h-45.75Z"/></g><path fill="#1f3969" d="M566.417 656.347H485.41a2 2 0 0 1-1.985-2.242 2.178 2.178 0 0 1 .735-1.385c7.135-5.778 11.412-12.846 12.044-19.9l3.014-33.651a2 2 0 0 1 1.992-1.821h49.407a2 2 0 0 1 1.992 1.821l3.015 33.651c.631 7.054 4.908 14.121 12.043 19.9a2 2 0 0 1 .727 1.312 2.082 2.082 0 0 1-.484 1.6 2.031 2.031 0 0 1-1.493.715Zm-75.894-4H561.3c-5.674-5.765-9.063-12.435-9.665-19.171l-2.852-31.829h-45.744l-2.851 31.83c-.603 6.736-3.988 13.406-9.665 19.17Z"/><rect width="340" height="230" x="355.914" y="374.346" fill="#fff" rx="12"/><rect width="340" height="230" x="355.914" y="374.346" fill="#bfcfe2" rx="12"/><path fill="#1f3969" d="M683.914 606.347h-316a14.016 14.016 0 0 1-14-14v-206a14.015 14.015 0 0 1 14-14h316a14.015 14.015 0 0 1 14 14v206a14.016 14.016 0 0 1-14 14Zm-316-230a10.011 10.011 0 0 0-10 10v206a10.011 10.011 0 0 0 10 10h316a10.012 10.012 0 0 0 10-10v-206a10.011 10.011 0 0 0-10-10Z"/><path fill="#f6f9fd" d="M678.914 391.346v174.591h-306V391.346z"/><g fill="#1f3969" opacity=".28"><path d="M383.928 374.346v138.593a8 8 0 0 0 8 8H581a8 8 0 0 0 8-8V374.346Z"/><path d="M581 522.939H391.928a10.011 10.011 0 0 1-10-10V374.346a2 2 0 0 1 2-2H589a2 2 0 0 1 2 2v138.593a10.011 10.011 0 0 1-10 10ZM385.928 376.346v136.593a6.007 6.007 0 0 0 6 6H581a6.006 6.006 0 0 0 6-6V376.346Z"/></g><path fill="#1f3969" d="M678.914 567.938h-306a2 2 0 0 1-2-2V391.346a2 2 0 0 1 2-2h306a2 2 0 0 1 2 2v174.592a2 2 0 0 1-2 2Zm-304-4h302V393.346h-302Zm164.445 23.11h-26.891a2 2 0 1 1 0-4h26.891a2 2 0 1 1 0 4Z"/><rect width="205.073" height="164.286" x="392.928" y="345.654" fill="#2d425e" rx="8"/><path fill="#1f3969" d="M598 367.108H392.928a2 2 0 0 1-2-2v-11.454a10.011 10.011 0 0 1 10-10H590a10.011 10.011 0 0 1 10 10v11.454a2 2 0 0 1-2 2Zm-203.073-4H596v-9.454a6.006 6.006 0 0 0-6-6H400.928a6.007 6.007 0 0 0-6 6Z"/><path fill="#d0ddf0" d="M400.928 345.654H590a8 8 0 0 1 8 8v15.264H392.928v-15.264a8 8 0 0 1 8-8Z"/><path fill="#1f3969" d="M598 370.918H392.928a2 2 0 0 1-2-2v-15.264a10.011 10.011 0 0 1 10-10H590a10.011 10.011 0 0 1 10 10v15.264a2 2 0 0 1-2 2Zm-203.073-4H596v-13.264a6.006 6.006 0 0 0-6-6H400.928a6.007 6.007 0 0 0-6 6Z"/><path fill="#1f3969" d="M598 370.918H392.928a2 2 0 0 1-2-2v-15.264a10.011 10.011 0 0 1 10-10H590a10.011 10.011 0 0 1 10 10v15.264a2 2 0 0 1-2 2Zm-203.073-4H596v-13.264a6.006 6.006 0 0 0-6-6H400.928a6.007 6.007 0 0 0-6 6Z"/><path fill="#1f3969" d="M590 511.939H400.928a10.011 10.011 0 0 1-10-10V353.654a10.011 10.011 0 0 1 10-10H590a10.011 10.011 0 0 1 10 10v148.285a10.011 10.011 0 0 1-10 10ZM400.928 347.654a6.007 6.007 0 0 0-6 6v148.285a6.007 6.007 0 0 0 6 6H590a6.006 6.006 0 0 0 6-6V353.654a6.006 6.006 0 0 0-6-6Z"/><g fill="#1f3969" opacity=".28"><rect width="132.016" height="138.945" x="564.673" y="406.4" rx="8"/><path d="M688.689 547.346H572.673a10.012 10.012 0 0 1-10-10V414.4a10.011 10.011 0 0 1 10-10h116.016a10.011 10.011 0 0 1 10 10v122.946a10.012 10.012 0 0 1-10 10ZM572.673 408.4a6.006 6.006 0 0 0-6 6v122.946a6.007 6.007 0 0 0 6 6h116.016a6.007 6.007 0 0 0 6-6V414.4a6.006 6.006 0 0 0-6-6Z"/></g><rect width="132.016" height="138.945" x="572.673" y="399.4" fill="#2aa1ff" rx="8"/><path fill="#1f3969" d="M696.689 540.346H580.673a10.012 10.012 0 0 1-10-10V407.4a10.011 10.011 0 0 1 10-10h116.016a10.011 10.011 0 0 1 10 10v122.946a10.012 10.012 0 0 1-10 10ZM580.673 401.4a6.006 6.006 0 0 0-6 6v122.946a6.007 6.007 0 0 0 6 6h116.016a6.007 6.007 0 0 0 6-6V407.4a6.006 6.006 0 0 0-6-6Z"/><rect width="91.903" height="18.134" x="592.69" y="419.339" fill="none" stroke="#fff" stroke-linecap="round" stroke-linejoin="round" stroke-width="2" opacity=".34" rx="5.167" style="mix-blend-mode:screen"/><g fill="none" stroke="#fff" stroke-linecap="round" stroke-linejoin="round" stroke-width="2" opacity=".34" style="mix-blend-mode:screen"><rect width="55.977" height="18.134" x="592.77" y="448.646" rx="5.167"/><rect width="27.989" height="18.134" x="656.684" y="448.646" rx="5.167"/></g><path fill="none" stroke="#fff" stroke-linecap="round" stroke-linejoin="round" stroke-width="2" d="M592.69 497.23h91.903m-91.903 10.791h91.903m-91.903 10.79h55.977"/><circle cx="413" cy="357.286" r="4" fill="#1f3969"/><circle cx="426.886" cy="357.286" r="4" fill="#1f3969"/><circle cx="440.772" cy="357.286" r="4" fill="#1f3969"/><path fill="none" stroke="#fff" stroke-linecap="round" stroke-linejoin="round" stroke-width="4" d="M510.741 387.379h12.928"/><path fill="none" stroke="#7bffa0" stroke-linecap="round" stroke-linejoin="round" stroke-width="4" d="M444.772 387.379h56.376"/><path fill="none" stroke="#9169ff" stroke-linecap="round" stroke-linejoin="round" stroke-width="4" d="M417 387.379h19.772m6 98.559h43.058"/><path fill="none" stroke="#7bffa0" stroke-linecap="round" stroke-linejoin="round" stroke-width="4" d="M417 485.938h13.885"/><path fill="none" stroke="#fff" stroke-linecap="round" stroke-linejoin="round" stroke-width="4" d="M501.149 399.699h8.015"/><path fill="none" stroke="#9169ff" stroke-linecap="round" stroke-linejoin="round" stroke-width="4" d="M464.279 399.699h27.227"/><path fill="none" stroke="#ffc47d" stroke-linecap="round" stroke-linejoin="round" stroke-width="4" d="M426.886 399.699h27.744"/><path fill="none" stroke="#fff" stroke-linecap="round" stroke-linejoin="round" stroke-width="4" d="M469.83 412.019h23.838"/><path fill="none" stroke="#ff5757" stroke-linecap="round" stroke-linejoin="round" stroke-width="4" d="M439.769 412.019h22.482"/><path fill="none" stroke="#fff" stroke-linecap="round" stroke-linejoin="round" stroke-width="4" d="M473.009 424.339h4.938"/><path fill="none" stroke="#9169ff" stroke-linecap="round" stroke-linejoin="round" stroke-width="4" d="M453.189 424.339h11.09"/><path fill="none" stroke="#7bffa0" stroke-linecap="round" stroke-linejoin="round" stroke-width="4" d="M426.886 424.339h17.886"/><path fill="none" stroke="#ffc47d" stroke-linecap="round" stroke-linejoin="round" stroke-width="4" d="M465.288 436.659h31.894"/><path fill="none" stroke="#ff5757" stroke-linecap="round" stroke-linejoin="round" stroke-width="4" d="M426.886 436.659h28.627"/><path fill="none" stroke="#9169ff" stroke-linecap="round" stroke-linejoin="round" stroke-width="4" d="M502.182 448.979h17.343"/><path fill="none" stroke="#ff5757" stroke-linecap="round" stroke-linejoin="round" stroke-width="4" d="M465.288 448.979h27.749"/><path fill="none" stroke="#7bffa0" stroke-linecap="round" stroke-linejoin="round" stroke-width="4" d="M439.769 448.979h15.744"/><path fill="none" stroke="#fff" stroke-linecap="round" stroke-linejoin="round" stroke-width="4" d="M477.893 461.299h15.144"/><path fill="none" stroke="#9169ff" stroke-linecap="round" stroke-linejoin="round" stroke-width="4" d="M439.769 461.299h27.744"/><path fill="none" stroke="#fff" stroke-linecap="round" stroke-linejoin="round" stroke-width="4" d="M517.205 473.619h17.292"/><path fill="none" stroke="#ffc47d" stroke-linecap="round" stroke-linejoin="round" stroke-width="4" d="M464.279 473.619h43.569"/><path fill="none" stroke="#fff" stroke-linecap="round" stroke-linejoin="round" stroke-width="4" d="M426.886 473.619h27.744"/><path fill="#1f3969" d="M430.359 634.522H214.9a2 2 0 1 1 0-4h215.459a2 2 0 1 1 0 4Zm0 8.017H214.9a2 2 0 1 1 0-4h215.459a2 2 0 0 1 0 4Z"/><path fill="#1f3969" d="M432.39 650.3H212.442a2 2 0 0 1-1.86-2.735 30.787 30.787 0 0 0 0-21.247 2 2 0 0 1 1.86-2.734H432.39a2 2 0 0 1 1.86 2.733 30.792 30.792 0 0 0 0 21.249 2 2 0 0 1-1.86 2.734Zm-217.168-4h214.389a35.6 35.6 0 0 1 0-18.716H215.222a35.626 35.626 0 0 1 0 18.716Z"/><path fill="#ffa364" d="m718.559 545.263 9.747-1.144 8.47 72.154-9.747 1.145z"/><path fill="#2aa1ff" d="m718.559 545.263 9.747-1.144.861 7.34-9.747 1.144z"/><path fill="#1f3969" d="M719.42 554.6a2 2 0 0 1-1.986-1.767l-.862-7.34a2 2 0 0 1 1.753-2.22l9.747-1.144a2 2 0 0 1 2.22 1.753l.861 7.34a2 2 0 0 1-1.753 2.219l-9.747 1.145a2.037 2.037 0 0 1-.233.014Zm1.358-7.587.395 3.367 5.774-.678-.394-3.367Z"/><path fill="#1f3969" d="M727.028 619.418a2 2 0 0 1-1.986-1.767l-8.47-72.154a2 2 0 0 1 1.753-2.22l9.747-1.144a2 2 0 0 1 2.22 1.753l8.47 72.154a2 2 0 0 1-1.753 2.22l-9.747 1.144a2.054 2.054 0 0 1-.234.014Zm-6.25-72.4 8 68.181 5.775-.677-8-68.182Z"/><path fill="#ff5252" d="m745.388 557.752 9.757 1.06-7.851 72.225-9.757-1.06z"/><path fill="#1f3969" d="M747.3 633.032c-.073 0-.146 0-.219-.011l-9.757-1.061a2 2 0 0 1-1.772-2.2l7.85-72.224a2 2 0 0 1 2.2-1.772l9.757 1.06a2 2 0 0 1 1.773 2.2l-7.851 72.224a2 2 0 0 1-1.981 1.784Zm-7.556-4.833 5.78.629 7.419-68.247-5.78-.629Z"/><path fill="#2d425e" d="m745.389 557.752 9.757 1.06-.8 7.347-9.756-1.06z"/><path fill="#1f3969" d="M754.354 568.155c-.072 0-.145 0-.218-.011l-9.757-1.061a2 2 0 0 1-1.773-2.2l.8-7.347a2 2 0 0 1 2.2-1.772l9.757 1.06a2 2 0 0 1 1.773 2.2l-.8 7.347a2 2 0 0 1-1.982 1.784Zm-7.555-4.833 5.78.629.367-3.37-5.78-.629Z"/><path fill="#6567c3" d="M761.07 654.573h-39.261l-6.385-60.183h52.031l-6.385 60.183z"/><path fill="#6567c3" d="m715.424 594.39.117 1.105h39.642l-6.268 59.078h12.155l6.385-60.183h-52.031z" style="mix-blend-mode:overlay"/><path fill="#1f3969" d="M761.069 656.573h-39.26a2 2 0 0 1-1.99-1.789l-6.384-60.184a2 2 0 0 1 1.989-2.211h52.031a2 2 0 0 1 1.989 2.211l-6.385 60.183a2 2 0 0 1-1.99 1.79Zm-37.462-4h35.664l5.96-56.183h-47.584Z"/></g></svg>