<svg xmlns="http://www.w3.org/2000/svg" width="1000" height="1000" viewBox="100 100 800 800"><g data-name="Layer 1" style="isolation:isolate"><g fill="#474747" opacity=".15"><path d="M785.217 751.724H543.01c-17.262 0-30.783-25.416-30.783-57.863V335a3 3 0 0 1 6 0v358.861c0 28.113 11.349 51.863 24.783 51.863h242.207c13.433 0 24.783-23.75 24.783-51.863V237a3 3 0 0 1 6 0v456.861c0 32.447-13.521 57.863-30.783 57.863Z"/><path d="M865 751.724H203a3 3 0 0 1 0-6h662a3 3 0 0 1 0 6ZM813 457H515.227a3 3 0 0 1 0-6H813a3 3 0 0 1 0 6Zm0 212.86H515.227a3 3 0 0 1 0-6H813a3 3 0 0 1 0 6Zm-32.916-13.492h-20.338a13.931 13.931 0 0 1-13.916-13.915v-156.2a13.932 13.932 0 0 1 13.916-13.915h20.338A13.932 13.932 0 0 1 794 486.254v156.2a13.931 13.931 0 0 1-13.916 13.914Zm-20.338-178.029a7.925 7.925 0 0 0-7.916 7.915v156.2a7.925 7.925 0 0 0 7.916 7.915h20.338a7.925 7.925 0 0 0 7.916-7.916v-156.2a7.925 7.925 0 0 0-7.916-7.915Zm-38.72 178.029h-20.338a13.931 13.931 0 0 1-13.916-13.915v-156.2a13.932 13.932 0 0 1 13.916-13.915h20.338a13.932 13.932 0 0 1 13.916 13.915v156.2a13.931 13.931 0 0 1-13.916 13.915Zm-20.338-178.029a7.925 7.925 0 0 0-7.916 7.915v156.2a7.925 7.925 0 0 0 7.916 7.915h20.338a7.924 7.924 0 0 0 7.916-7.915v-156.2a7.924 7.924 0 0 0-7.916-7.915Zm79.396-34.96h-20.338a13.932 13.932 0 0 1-13.916-13.916v-156.2a13.932 13.932 0 0 1 13.916-13.916h20.338A13.932 13.932 0 0 1 794 273.265v156.2a13.932 13.932 0 0 1-13.916 13.914Zm-20.338-178.03a7.925 7.925 0 0 0-7.916 7.916v156.2a7.925 7.925 0 0 0 7.916 7.916h20.338a7.925 7.925 0 0 0 7.916-7.918v-156.2a7.925 7.925 0 0 0-7.916-7.916ZM723.1 443.379H566.9a13.933 13.933 0 0 1-13.916-13.916v-20.338a13.933 13.933 0 0 1 13.916-13.916h156.2a13.932 13.932 0 0 1 13.916 13.916v20.338a13.932 13.932 0 0 1-13.916 13.916Zm-156.2-42.17a7.925 7.925 0 0 0-7.916 7.916v20.338a7.925 7.925 0 0 0 7.916 7.916h156.2a7.925 7.925 0 0 0 7.916-7.916v-20.338a7.925 7.925 0 0 0-7.916-7.916ZM723.1 389.5H576.582a13.931 13.931 0 0 1-13.915-13.916V362.28a13.931 13.931 0 0 1 13.915-13.916H723.1a13.932 13.932 0 0 1 13.916 13.916v13.307A13.932 13.932 0 0 1 723.1 389.5Zm-146.518-35.136a7.925 7.925 0 0 0-7.915 7.916v13.307a7.925 7.925 0 0 0 7.915 7.916H723.1a7.925 7.925 0 0 0 7.916-7.916V362.28a7.925 7.925 0 0 0-7.916-7.916ZM615.844 654.2a10.491 10.491 0 0 1-4.037-.809l-13.846-5.771a10.528 10.528 0 0 1-5.668-13.769l50.518-121.205a10.538 10.538 0 0 1 13.769-5.668l13.846 5.77a10.544 10.544 0 0 1 5.668 13.769l-50.518 121.206a10.544 10.544 0 0 1-9.732 6.477Zm36.691-142.032a4.534 4.534 0 0 0-4.185 2.786l-50.518 121.205a4.533 4.533 0 0 0 2.438 5.922l13.845 5.771a4.529 4.529 0 0 0 5.922-2.438l50.518-121.205a4.535 4.535 0 0 0-2.438-5.923l-13.846-5.769a4.474 4.474 0 0 0-1.736-.349ZM226.721 502.4h-79.349a3 3 0 1 1 0-6h76.349v-32.684h-76.349a3 3 0 1 1 0-6h79.349a3 3 0 0 1 3 3V499.4a3 3 0 0 1-3 3Z"/><path d="M306.07 502.4h-79.349a3 3 0 1 1 0-6h79.349a3 3 0 1 1 0 6Zm-48.97-38.684h-30.379a3 3 0 0 1 0-6H257.1a3 3 0 0 1 0 6Z"/><path d="M266.4 541.077h-79.35a3 3 0 0 1-3-3V499.4a3 3 0 0 1 3-3h79.35a3 3 0 0 1 3 3v38.68a3 3 0 0 1-3 2.997Zm-76.35-6h73.35V502.4h-73.35Z"/><path d="M226.721 579.944h-25.675a3 3 0 0 1 0-6h22.675v-32.68h-64.008a3 3 0 1 1 0-6h67.008a3 3 0 0 1 3 3v38.68a3 3 0 0 1-3 3Z"/><path d="M306.07 579.944h-79.349a3 3 0 0 1-3-3v-38.68a3 3 0 0 1 3-3h79.349a3 3 0 0 1 3 3v38.68a3 3 0 0 1-3 3Zm-76.349-6h73.349v-32.68h-73.349Zm205.045-155.366H311.624a3 3 0 0 1-3-3v-99.822a3 3 0 0 1 3-3h123.142a3 3 0 0 1 3 3v99.822a3 3 0 0 1-3 3Zm-120.142-6h117.142v-93.822H314.624Z"/><path d="M328.607 395.462a3 3 0 0 1-2.466-4.706l22.559-32.667a3 3 0 0 1 2.356-1.293 2.961 2.961 0 0 1 2.447 1.115l23.332 28.916a3 3 0 0 1-4.669 3.768L351.358 364.8l-20.28 29.364a3 3 0 0 1-2.471 1.298Z"/><path d="M419.765 395.462a3 3 0 0 1-2.688-1.665l-20.512-41.24-28.533 27.695a3 3 0 1 1-4.179-4.305l31.48-30.556a3 3 0 0 1 4.775.817l22.341 44.917a3 3 0 0 1-2.684 4.337Z"/><path d="M357.719 370.917a3 3 0 0 1-2.849-3.942 14.837 14.837 0 0 1 26.821-2.959 3 3 0 0 1-5.148 3.082 8.837 8.837 0 0 0-15.976 1.758 3 3 0 0 1-2.848 2.061Z"/></g><path fill="#d2dde1" d="m472.426 622.064 4.41-8.986 9.65 2.654 4.409-8.986 9.651 2.655 4.41-8.987 9.651 2.654 4.411-8.986 9.654 2.653 4.411-8.987 9.654 2.653 4.411-8.987 9.655 2.652 4.412-8.987 9.655 2.653 4.411-8.987 9.652 2.653 4.413-8.987 9.654 2.651 4.413-8.987 9.66 2.65 4.417-8.99-5.8-7.85a25.341 25.341 0 0 0-30.789-8.052L453.075 591.4Z"/><path fill="#474747" d="M472.426 625.063a3 3 0 0 1-2.537-1.4L450.538 593a3 3 0 0 1 1.305-4.337L579.677 531.1a28.491 28.491 0 0 1 34.432 9.006l5.8 7.849a3 3 0 0 1 .28 3.106l-4.418 8.99a2.993 2.993 0 0 1-3.487 1.569l-7.265-1.994-3.32 6.761a3 3 0 0 1-3.487 1.57l-7.264-1.994-3.318 6.76a2.994 2.994 0 0 1-3.488 1.57l-7.259-2-3.317 6.757a2.994 2.994 0 0 1-3.488 1.571l-7.261-1.994-3.317 6.759a2.994 2.994 0 0 1-3.488 1.57l-7.262-1.994-3.317 6.759a3 3 0 0 1-3.489 1.57l-7.258-2-3.317 6.757a2.993 2.993 0 0 1-3.488 1.571l-7.261-2-3.316 6.759a3 3 0 0 1-3.489 1.57l-7.257-2-3.316 6.757a3 3 0 0 1-3.489 1.571l-7.256-2-3.315 6.757a3 3 0 0 1-3.489 1.571l-7.255-2-3.315 6.756a3 3 0 0 1-2.534 1.675.354.354 0 0 1-.163.028Zm-14.971-32.344 14.643 23.2 2.045-4.166a3 3 0 0 1 3.489-1.571l7.255 2 3.315-6.756a3 3 0 0 1 3.488-1.571l7.257 2 3.316-6.757a3 3 0 0 1 3.489-1.572l7.257 2 3.316-6.759a3 3 0 0 1 3.488-1.571l7.26 2 3.317-6.757a3 3 0 0 1 3.488-1.572l7.26 2 3.317-6.759a3 3 0 0 1 3.488-1.571l7.261 2 3.317-6.759a3 3 0 0 1 3.489-1.57l7.261 1.994 3.316-6.757a3 3 0 0 1 3.488-1.571l7.26 2 3.317-6.759a3 3 0 0 1 3.488-1.57l7.264 1.994 3.319-6.761a3 3 0 0 1 3.487-1.57l7.267 1.994L614 550.05l-4.713-6.382a22.463 22.463 0 0 0-27.143-7.1Z"/><path fill="#d2dde1" d="m409.86 656.9-74.655 14.969-62.147-309.953a121.406 121.406 0 0 1 85.436 86.359Z"/><path fill="#d2dde1" d="M448.866 581.684c-11.243 10.553-20.947 4.136-20.672-4.792.441-14.269 7.935-29.308 15.854-40.736 4.73-6.825 16.8-18.977 23.5-13.693L484 450.311l-26.189-34.187-4.777 8.239a548.99 548.99 0 0 0-30.6 61.315 496.435 496.435 0 0 0-22.268 65.266L373.2 651.7l47.236 15.221s15.612-16.687 20.216-27.092a344.594 344.594 0 0 0 18.648-54.256Z"/><path fill="#474747" d="M420.431 669.922a2.981 2.981 0 0 1-.92-.145l-47.236-15.22a3 3 0 0 1-1.978-3.631l26.964-100.758a501.3 501.3 0 0 1 22.4-65.66 553.79 553.79 0 0 1 30.769-61.65l4.777-8.238a3 3 0 0 1 4.977-.32l26.189 34.187a3 3 0 0 1 .543 2.491l-16.443 72.152a3 3 0 0 1-3.928 2.16c-5.457-1.934-15.673 6.286-20.031 12.575-5.516 7.96-14.843 23.627-15.321 39.12a6.761 6.761 0 0 0 3.68 6.64c3.236 1.46 7.588-.044 11.939-4.129a3 3 0 0 1 3.1-.624l10.435 3.89a3 3 0 0 1 1.873 3.5 351.1 351.1 0 0 1-18.832 54.786c-4.754 10.746-20.117 27.231-20.768 27.928a3 3 0 0 1-2.189.946Zm-43.6-20.2 42.687 13.755c3.767-4.169 14.788-16.729 18.385-24.86a351.016 351.016 0 0 0 17.836-51.169l-6.235-2.324c-5.806 4.839-11.962 6.289-17.1 3.971A12.811 12.811 0 0 1 425.2 576.8c.526-17.036 10.492-33.848 16.387-42.353 3.725-5.375 13.94-15.448 23.163-15.448.171 0 .342 0 .513.011l15.5-67.992-22.606-29.509-2.528 4.359a547.9 547.9 0 0 0-30.434 60.98 495.33 495.33 0 0 0-22.133 64.871Z"/><path fill="#e7eff1" d="m294.437 370 65.724 296.86 49.7-9.965-51.366-208.62A121.405 121.405 0 0 0 294.437 370Z"/><path fill="#474747" d="M335.2 674.864a3 3 0 0 1-2.938-2.411l-62.145-309.947a3 3 0 0 1 3.732-3.484 124.74 124.74 0 0 1 87.551 88.494l51.377 208.662a3 3 0 0 1-2.323 3.658l-74.656 14.969a3 3 0 0 1-.598.059ZM276.978 366.2l60.578 302.128 68.644-13.759-50.619-205.576a118.726 118.726 0 0 0-78.603-82.793Z"/><path fill="#bcc6c9" d="m445.776 601.778 14.3-.521a4.449 4.449 0 0 0 4.476-5.339l-1.982-14.172 14.291-.516a4.449 4.449 0 0 0 4.478-5.341l-1.984-14.165 14.29-.516a4.449 4.449 0 0 0 4.478-5.341l-1.984-14.167 14.292-.517a4.449 4.449 0 0 0 4.478-5.341l-1.986-14.163 14.291-.516a4.449 4.449 0 0 0 4.478-5.341l-1.985-14.163 15.6-1.509c3.425-.331 5.073-3.443 3.674-6.936l-13.406-33.469-3.567 26.8-13.8.5a4.87 4.87 0 0 0-4.9 5.847l1.917 13.675-13.8.5a4.87 4.87 0 0 0-4.9 5.847l1.917 13.674-13.8.5a4.871 4.871 0 0 0-4.9 5.847l1.916 13.677-13.8.5a4.87 4.87 0 0 0-4.9 5.846l1.915 13.677-13.8.5a4.872 4.872 0 0 0-4.9 5.846l1.914 13.682-19.5.71-18.728 22.34 23.356 19.58Z"/><path fill="#474747" d="M433.216 632.289a3 3 0 0 1-1.927-.7l-23.356-19.58a3 3 0 0 1-.371-4.227l18.728-22.34a3 3 0 0 1 2.189-1.07l16.174-.59-1.453-10.389a7.86 7.86 0 0 1 7.766-9.259l10.475-.379-1.455-10.383a7.861 7.861 0 0 1 7.766-9.261l10.474-.378-1.455-10.381a7.859 7.859 0 0 1 7.765-9.261l10.475-.38-1.455-10.38a7.86 7.86 0 0 1 7.764-9.261l10.474-.379-1.454-10.38a7.859 7.859 0 0 1 7.764-9.261l11.267-.407 3.233-24.291a3 3 0 0 1 5.759-.72L551.77 492.1a8.4 8.4 0 0 1-.374 7.546 7.512 7.512 0 0 1-5.8 3.493l-12.488 1.207 1.55 11.062a7.438 7.438 0 0 1-7.341 8.755l-10.966.4 1.524 10.868a7.439 7.439 0 0 1-7.34 8.756l-10.968.4 1.524 10.87a7.439 7.439 0 0 1-7.341 8.755l-10.966.4 1.522 10.871a7.44 7.44 0 0 1-7.341 8.755l-10.968.4 1.522 10.878a7.439 7.439 0 0 1-7.337 8.753l-12.45.454-11.791 25.826a3 3 0 0 1-2.729 1.754Zm-19.129-22.952 18.037 15.121 10.923-23.926a3 3 0 0 1 2.62-1.752l14.3-.521a1.487 1.487 0 0 0 1.614-1.925l-1.981-14.172a3 3 0 0 1 2.862-3.414l14.291-.517a1.487 1.487 0 0 0 1.616-1.926l-1.984-14.165a3 3 0 0 1 2.863-3.414l14.29-.516a1.488 1.488 0 0 0 1.615-1.927l-1.985-14.164a3 3 0 0 1 2.863-3.414l14.292-.517a1.488 1.488 0 0 0 1.616-1.926l-1.987-14.162a3 3 0 0 1 2.862-3.414l14.291-.517a1.488 1.488 0 0 0 1.616-1.926l-1.985-14.164a3 3 0 0 1 2.682-3.4l15.6-1.509a1.535 1.535 0 0 0 1.25-.639 2.582 2.582 0 0 0-.072-2.195l-9.155-22.858-2.06 15.47a3 3 0 0 1-2.865 2.6l-13.8.5a1.9 1.9 0 0 0-2.04 2.432l1.916 13.675a3 3 0 0 1-2.862 3.414l-13.8.5a1.9 1.9 0 0 0-2.03 2.431l1.916 13.675a3 3 0 0 1-2.862 3.414l-13.8.5a1.9 1.9 0 0 0-2.039 2.433l1.916 13.675a3 3 0 0 1-2.862 3.414l-13.8.5a1.9 1.9 0 0 0-2.039 2.433l1.916 13.677a3 3 0 0 1-2.863 3.414l-13.8.5a1.9 1.9 0 0 0-2.039 2.431l1.913 13.681a3 3 0 0 1-2.862 3.414l-18.163.662Z"/><rect width="400" height="140" x="326.942" y="608.723" fill="#9acf8d" rx="70"/><path fill="#6fd5da" d="M656.942 732.668h-260a70 70 0 0 1-69.528-61.968 70.676 70.676 0 0 0-.472 8.027 70 70 0 0 0 70 70h260a70 70 0 0 0 70-70 70.676 70.676 0 0 0-.472-8.027 70 70 0 0 1-69.528 61.968Z" opacity=".6" style="mix-blend-mode:multiply"/><path fill="#6fd5da" d="M656.942 608.723h-260a70 70 0 0 0-70 70 70.9 70.9 0 0 0 .408 7.528 70 70 0 0 1 69.592-62.473h260a70 70 0 0 1 69.592 62.473 70.9 70.9 0 0 0 .408-7.528 70 70 0 0 0-70-70Z" opacity=".4" style="mix-blend-mode:screen"/><path fill="#474747" d="M656.942 751.724h-260a73 73 0 0 1 0-146h260a73 73 0 0 1 0 146Zm-260-140a67 67 0 0 0 0 134h260a67 67 0 0 0 0-134Zm-41.11-8.569a1.5 1.5 0 0 1-.4-2.945l30.725-8.5a1.5 1.5 0 1 1 .8 2.891l-30.726 8.5a1.493 1.493 0 0 1-.399.054Z"/><circle cx="401.185" cy="678.723" r="25.162" fill="#d2dde1"/><path fill="#474747" d="M380.788 718.617a2.987 2.987 0 0 1-1.453-.378 45.239 45.239 0 0 1-23.311-39.515 44.752 44.752 0 0 1 8.947-26.957 3 3 0 0 1 4.809 3.587 38.8 38.8 0 0 0-7.756 23.37 39.238 39.238 0 0 0 20.223 34.269 3 3 0 0 1-1.459 5.624Z" opacity=".2"/><path fill="#474747" d="M401.186 706.885a28.162 28.162 0 1 1 28.161-28.161 28.193 28.193 0 0 1-28.161 28.161Zm0-50.323a22.162 22.162 0 1 0 22.161 22.162 22.187 22.187 0 0 0-22.161-22.162Zm15.056-106.232a1.569 1.569 0 0 1-.3-.03 1.5 1.5 0 0 1-1.169-1.771c4.342-21.216 19.555-59.862 19.708-60.25a1.5 1.5 0 0 1 2.791 1.1c-.152.386-15.27 38.791-19.56 59.75a1.5 1.5 0 0 1-1.47 1.201Z"/><path fill="#474747" d="M401.186 697.778a3 3 0 0 1-3-3v-32.11a3 3 0 0 1 6 0v32.11a3 3 0 0 1-3 3Z"/><path fill="#474747" d="M417.241 681.724H385.13a3 3 0 0 1 0-6h32.111a3 3 0 1 1 0 6Zm-74.722-93.04a1.5 1.5 0 0 1-1.463-1.176l-10.109-45.66a1.5 1.5 0 0 1 2.929-.649l10.109 45.66a1.5 1.5 0 0 1-1.14 1.789 1.521 1.521 0 0 1-.326.036Zm-13.911-62.834a1.5 1.5 0 0 1-1.463-1.176L298.7 396.178a1.5 1.5 0 0 1 2.929-.649l28.449 128.5a1.5 1.5 0 0 1-1.14 1.789 1.528 1.528 0 0 1-.33.032Z"/></g></svg>