<svg xmlns="http://www.w3.org/2000/svg" width="398.786" height="237.6" viewBox="87.9 -398 415.4 247.5"><style><![CDATA[[layerid="1"]{stroke:red;fill:red}[layerid="2"]{stroke:#00f;fill:#00f}[layerid="3"]{stroke:#fc0;fill:#fc0}[layerid="4"]{stroke:#6c3;fill:#6c3}[layerid="5"]{stroke:gray;fill:gray}[layerid="6"]{stroke:maroon;fill:maroon}[layerid="7"]{stroke:purple;fill:purple}[layerid="8"]{stroke:#a0f;fill:#a0f}[layerid="9"]{stroke:#6464ff;fill:#6464ff}[layerid="10"]{stroke:#f0f;fill:#f0f}[layerid="11"]{stroke:silver;fill:silver}[layerid="12"]{stroke:#fff;fill:#fff}[layerid="13"]{stroke:#3c9;fill:#3c9}[layerid="14"]{stroke:#55f;fill:#55f}[layerid="15"]{stroke:#f022f0;fill:#f022f0}[layerid="19"]{stroke:#6cf;fill:#6cf}[layerid="21"]{stroke:#996;fill:#996}[layerid="22"]{stroke:green;fill:green}[layerid="23"]{stroke:#0f0;fill:#0f0}[layerid="24"]{stroke:#bc8e00;fill:#bc8e00}[layerid="25"]{stroke:#70dbfa;fill:#70dbfa}[layerid="26"]{stroke:#0c6;fill:#0c6}[layerid="27"]{stroke:#96f;fill:#96f}[layerid="28"]{stroke:purple;fill:purple}[layerid="29"]{stroke:teal;fill:teal}[layerid="30"]{stroke:#15935f;fill:#15935f}[layerid="31"]{stroke:navy;fill:navy}[layerid="32"]{stroke:#00b400;fill:#00b400}[layerid="33"]{stroke:#2e4756;fill:#2e4756}[layerid="34"]{stroke:#99842f;fill:#99842f}[layerid="35"]{stroke:#ffa;fill:#ffa}[layerid="36"]{stroke:#99842f;fill:#99842f}[layerid="37"]{stroke:#2e4756;fill:#2e4756}[layerid="38"]{stroke:#3535ff;fill:#3535ff}[layerid="39"]{stroke:#8000bc;fill:#8000bc}[layerid="40"]{stroke:#43ae5f;fill:#43ae5f}[layerid="41"]{stroke:#c3ecce;fill:#c3ecce}[layerid="42"]{stroke:#728978;fill:#728978}[layerid="43"]{stroke:#39503f;fill:#39503f}[layerid="44"]{stroke:#0c715d;fill:#0c715d}[layerid="45"]{stroke:#5a8a80;fill:#5a8a80}[layerid="46"]{stroke:#2b937e;fill:#2b937e}[layerid="47"]{stroke:#23999d;fill:#23999d}[layerid="48"]{stroke:#45b4e3;fill:#45b4e3}[layerid="49"]{stroke:#215da1;fill:#215da1}[layerid="50"]{stroke:#4564d7;fill:#4564d7}[layerid="51"]{stroke:#6969e9;fill:#6969e9}[layerid="52"]{stroke:#9069e9;fill:#9069e9}[layerid="99"]{stroke:#0cc;fill:#0cc}[layerid="100"]{stroke:#c99;fill:#c99}[layerid="101"]{stroke:#6fc;fill:#6fc}[layerid=Hole]{stroke:#222;fill:#222}[layerid=DRCError]{stroke:#fff;fill:#fff}[fill=none]{fill:none}path{stroke-linecap:round;stroke-linejoin:round}g[c_partid=part_hole]>circle,g[c_partid=part_pad][layerid="11"] circle,g[c_partid=part_via]>*+circle{fill:#222}circle,path{shape-rendering:crispEdges}]]></style><path d="M87.9-398h415.4v247.5H87.9z" style="stroke:none;shape-rendering:crispEdges"/><path id="rep1232" stroke-width="0" d="M171.783-223.354h3.544v8.268h-3.544z"/><path id="rep1233" stroke-width="0" d="M162.728-223.354h3.544v8.268h-3.544z"/><path id="rep1234" stroke-width="0" d="M153.673-223.354h3.544v8.268h-3.544z"/><path id="rep1235" stroke-width="0" d="M158.2-200.914h12.6v8.268h-12.6z"/><path id="rep1253" stroke-width="0" d="M108.725-234.075v3.15h-3.15v-3.15z"/><path id="rep1254" stroke-width="0" d="M115.425-234.075v3.15h-3.15v-3.15z"/><path id="rep1273" stroke-width="0" d="M206.327-270.419h3.936v2.2h-3.936z"/><path id="rep1274" stroke-width="0" d="M194.756-256.57h16.142v6.692h-16.142z"/><path id="rep1293" stroke-width="0" d="M130.884-272.378v2.362h-5.708v-2.362z"/><path id="rep1294" stroke-width="0" d="M130.884-269.327v2.362h-5.708v-2.362z"/><path id="rep1295" stroke-width="0" d="M130.884-265.98v1.18h-5.708v-1.18z"/><path id="rep1296" stroke-width="0" d="M130.882-264.012v1.182h-5.708v-1.182z"/><path id="rep1297" stroke-width="0" d="M130.884-262.043v1.18h-5.708v-1.18z"/><path id="rep1298" stroke-width="0" d="M130.884-260.075v1.182h-5.708v-1.182z"/><path id="rep1299" stroke-width="0" d="M130.884-258.107v1.182h-5.708v-1.182z"/><path id="rep1300" stroke-width="0" d="M130.884-256.137v1.18h-5.708v-1.18z"/><path id="rep1301" stroke-width="0" d="M130.884-254.17v1.182h-5.708v-1.181z"/><path id="rep1302" stroke-width="0" d="M130.884-252.2v1.18h-5.708v-1.18z"/><path id="rep1303" stroke-width="0" d="M130.884-250.035v2.362h-5.708v-2.362z"/><path id="rep1304" stroke-width="0" d="M130.884-247.004v2.362h-5.708v-2.362z"/><path id="rep1390" stroke-width="1.575" d="M254.935-237.66h4.33"/><path id="rep1391" stroke-width="1.575" d="M254.935-240.22h4.33"/><path id="rep1392" stroke-width="1.575" d="M254.935-242.78h4.33"/><path id="rep1393" stroke-width="1.575" d="M254.935-245.34h4.33"/><path id="rep1394" stroke-width="1.575" d="M229.735-237.66h4.33"/><path id="rep1395" stroke-width="1.575" d="M229.735-240.22h4.33"/><path id="rep1396" stroke-width="1.575" d="M229.735-242.78h4.33"/><path id="rep1397" stroke-width="1.575" d="M229.735-245.34h4.33"/><path id="rep1408" stroke-width="0" d="M262.385-199.48v-1.102h1.674v1.102z"/><path id="rep1409" stroke-width="0" d="M262.385-201.449v-1.102h1.674v1.102z"/><path id="rep1410" stroke-width="0" d="M262.385-203.417v-1.102h1.674v1.102z"/><path id="rep1411" stroke-width="0" d="M258.941-203.417v-1.102h1.674v1.102z"/><path id="rep1412" stroke-width="0" d="M258.941-201.449v-1.102h1.674v1.102z"/><path id="rep1413" stroke-width="0" d="M258.941-199.48v-1.102h1.674v1.102z"/><path id="rep1421" stroke-width="2.756" d="M251.555-230.323h-4.224"/><path id="rep1422" stroke-width="2.756" d="M251.555-225.992h-4.224"/><path id="rep1423" stroke-width="2.756" d="M251.555-221.661h-4.224"/><path id="rep1424" stroke-width="2.756" d="M251.555-217.331h-4.224"/><path id="rep1425" stroke-width="2.756" d="M251.555-213h-4.224"/><path id="rep1426" stroke-width="2.756" d="M251.555-208.669h-4.224"/><path id="rep1427" stroke-width="2.756" d="M251.555-204.339h-4.224"/><path id="rep1428" stroke-width="2.756" d="M251.555-200.008h-4.224"/><path id="rep1429" stroke-width="2.756" d="M251.555-195.677h-4.224"/><path id="rep1430" stroke-width="2.756" d="M213.67-195.677h-4.225"/><path id="rep1431" stroke-width="2.756" d="M213.67-200.008h-4.225"/><path id="rep1432" stroke-width="2.756" d="M213.67-204.339h-4.225"/><path id="rep1433" stroke-width="2.756" d="M213.67-208.669h-4.225"/><path id="rep1434" stroke-width="2.756" d="M213.67-213h-4.225"/><path id="rep1435" stroke-width="2.756" d="M213.67-217.331h-4.225"/><path id="rep1436" stroke-width="2.756" d="M213.67-221.661h-4.225"/><path id="rep1437" stroke-width="2.756" d="M213.67-225.992h-4.225"/><path id="rep1438" stroke-width="2.756" d="M213.67-230.323h-4.225"/><path id="rep1450" stroke-width="1.102" d="M141.995-263.421h1.654"/><path id="rep1451" stroke-width="1.102" d="M141.995-261.453h1.654"/><path id="rep1452" stroke-width="1.102" d="M141.995-259.484h1.654"/><path id="rep1453" stroke-width="1.102" d="M141.995-257.516h1.654"/><path id="rep1454" stroke-width="1.102" d="M141.995-255.547h1.654"/><path id="rep1455" stroke-width="1.102" d="M141.995-253.579h1.654"/><path id="rep1456" stroke-width="1.102" d="M145.578-249.996v-1.654"/><path id="rep1457" stroke-width="1.102" d="M147.547-249.996v-1.654"/><path id="rep1458" stroke-width="1.102" d="M149.515-249.996v-1.654"/><path id="rep1459" stroke-width="1.102" d="M151.484-249.996v-1.654"/><path id="rep1460" stroke-width="1.102" d="M153.452-249.996v-1.654"/><path id="rep1461" stroke-width="1.102" d="M155.421-249.996v-1.654"/><path id="rep1462" stroke-width="1.102" d="M159.004-253.579h-1.654"/><path id="rep1463" stroke-width="1.102" d="M159.004-255.547h-1.654"/><path id="rep1464" stroke-width="1.102" d="M159.004-257.516h-1.654"/><path id="rep1465" stroke-width="1.102" d="M159.004-259.484h-1.654"/><path id="rep1466" stroke-width="1.102" d="M159.004-261.453h-1.654"/><path id="rep1467" stroke-width="1.102" d="M159.004-263.421h-1.654"/><path id="rep1468" stroke-width="1.102" d="M155.421-267.005v1.654"/><path id="rep1469" stroke-width="1.102" d="M153.453-267.005v1.654"/><path id="rep1470" stroke-width="1.102" d="M151.484-267.005v1.654"/><path id="rep1471" stroke-width="1.102" d="M149.516-267.005v1.654"/><path id="rep1472" stroke-width="1.102" d="M147.547-267.005v1.654"/><path id="rep1473" stroke-width="1.102" d="M145.578-267.005v1.654"/><path id="rep1474" stroke-width="0" d="M145.579-263.421h9.842v9.842h-9.842z"/><path id="rep1487" stroke-width="0" d="M158.728-283.047v-5.906h3.544v5.906z"/><path id="rep1488" stroke-width="0" d="M163.728-283.047v-5.906h3.544v5.906z"/><path id="rep1489" stroke-width="0" d="M168.728-283.047v-5.906h3.544v5.906z"/><path id="rep1490" stroke-width="0" d="M173.728-283.047v-5.906h3.544v5.906z"/><path id="rep1491" stroke-width="0" d="M178.728-283.047v-5.906h3.544v5.906z"/><path id="rep1492" stroke-width="0" d="M183.728-283.047v-5.906h3.544v5.906z"/><path id="rep1493" stroke-width="0" d="M188.728-283.047v-5.906h3.544v5.906z"/><path id="rep1494" stroke-width="0" d="M193.728-283.047v-5.906h3.544v5.906z"/><path id="rep1495" stroke-width="0" d="M198.728-283.047v-5.906h3.544v5.906z"/><path id="rep1496" stroke-width="0" d="M203.728-283.047v-5.906h3.544v5.906z"/><path id="rep1497" stroke-width="0" d="M208.728-283.047v-5.906h3.544v5.906z"/><path id="rep1498" stroke-width="0" d="M213.728-283.047v-5.906h3.544v5.906z"/><path id="rep1499" stroke-width="0" d="M218.728-283.047v-5.906h3.544v5.906z"/><path id="rep1500" stroke-width="0" d="M223.728-283.047v-5.906h3.544v5.906z"/><path id="rep1501" stroke-width="0" d="M234.359-297.161h-5.906v-3.544h5.906z"/><path id="rep1502" stroke-width="0" d="M234.359-302.161h-5.906v-3.544h5.906z"/><path id="rep1503" stroke-width="0" d="M234.359-307.161h-5.906v-3.544h5.906z"/><path id="rep1504" stroke-width="0" d="M234.359-312.161h-5.906v-3.544h5.906z"/><path id="rep1505" stroke-width="0" d="M234.359-317.161h-5.906v-3.544h5.906z"/><path id="rep1506" stroke-width="0" d="M234.359-322.161h-5.906v-3.544h5.906z"/><path id="rep1507" stroke-width="0" d="M234.359-327.161h-5.906v-3.544h5.906z"/><path id="rep1508" stroke-width="0" d="M234.359-332.161h-5.906v-3.544h5.906z"/><path id="rep1509" stroke-width="0" d="M234.359-337.161h-5.906v-3.544h5.906z"/><path id="rep1510" stroke-width="0" d="M234.359-342.161h-5.906v-3.544h5.906z"/><path id="rep1511" stroke-width="0" d="M227.272-359.819v5.906h-3.544v-5.906z"/><path id="rep1512" stroke-width="0" d="M222.272-359.819v5.906h-3.544v-5.906z"/><path id="rep1513" stroke-width="0" d="M217.272-359.819v5.906h-3.544v-5.906z"/><path id="rep1514" stroke-width="0" d="M212.272-359.819v5.906h-3.544v-5.906z"/><path id="rep1515" stroke-width="0" d="M207.272-359.819v5.906h-3.544v-5.906z"/><path id="rep1516" stroke-width="0" d="M202.272-359.819v5.906h-3.544v-5.906z"/><path id="rep1517" stroke-width="0" d="M197.272-359.819v5.906h-3.544v-5.906z"/><path id="rep1518" stroke-width="0" d="M192.272-359.819v5.906h-3.544v-5.906z"/><path id="rep1519" stroke-width="0" d="M187.272-359.819v5.906h-3.544v-5.906z"/><path id="rep1520" stroke-width="0" d="M182.272-359.819v5.906h-3.544v-5.906z"/><path id="rep1521" stroke-width="0" d="M177.272-359.819v5.906h-3.544v-5.906z"/><path id="rep1522" stroke-width="0" d="M172.272-359.819v5.906h-3.544v-5.906z"/><path id="rep1523" stroke-width="0" d="M167.272-359.819v5.906h-3.544v-5.906z"/><path id="rep1524" stroke-width="0" d="M162.272-359.819v5.906h-3.544v-5.906z"/><path id="rep1525" stroke-width="0" d="M199.85-327.339v19.685h-19.684v-19.685z"/><path id="rep1607" stroke-width="0" d="M287.01-274.4h1.653v.866h-1.654z"/><path id="rep1608" stroke-width="0" d="M287.01-272.825h1.653v.866h-1.654z"/><path id="rep1609" stroke-width="0" d="M284.45-271.25h1.654v.866h-1.654z"/><path id="rep1610" stroke-width="0" d="M284.45-272.825h1.654v.866h-1.654z"/><path id="rep1611" stroke-width="0" d="M287.01-271.25h1.653v.866h-1.654z"/><path id="rep1612" stroke-width="0" d="M284.45-274.4h1.653v.866h-1.654z"/><path id="rep1619" stroke-width="1.181" d="M268.098-293.677h-1.968"/><path id="rep1620" stroke-width="1.181" d="M268.098-291.118h-1.968"/><path id="rep1621" stroke-width="1.181" d="M268.098-286h-1.968"/><path id="rep1622" stroke-width="1.181" d="M268.098-278.323h-1.968"/><path id="rep1623" stroke-width="1.181" d="M263.177-275.37v1.968"/><path id="rep1624" stroke-width="1.181" d="M260.618-275.37v1.968"/><path id="rep1625" stroke-width="1.181" d="M258.059-275.37v1.968"/><path id="rep1626" stroke-width="1.181" d="M255.5-275.37v1.968"/><path id="rep1627" stroke-width="1.181" d="M252.941-275.37v1.968"/><path id="rep1628" stroke-width="1.181" d="M250.382-275.37v1.968"/><path id="rep1629" stroke-width="1.181" d="M244.87-280.882h-1.968"/><path id="rep1630" stroke-width="1.181" d="M244.87-283.441h-1.968"/><path id="rep1631" stroke-width="1.181" d="M244.87-286h-1.968"/><path id="rep1632" stroke-width="1.181" d="M244.87-288.559h-1.968"/><path id="rep1633" stroke-width="1.181" d="M244.87-291.118h-1.968"/><path id="rep1634" stroke-width="1.181" d="M244.87-293.677h-1.968"/><path id="rep1635" stroke-width="1.181" d="M247.823-298.598v1.968"/><path id="rep1636" stroke-width="1.181" d="M250.382-298.598v1.968"/><path id="rep1637" stroke-width="1.181" d="M252.941-298.598v1.968"/><path id="rep1638" stroke-width="1.181" d="M255.5-298.598v1.968"/><path id="rep1639" stroke-width="1.181" d="M260.618-298.598v1.968"/><path id="rep1640" stroke-width="1.181" d="M263.177-298.598v1.968"/><path id="rep1641" stroke-width="1.181" d="M268.098-288.559h-1.968"/><path id="rep1642" stroke-width="1.181" d="M268.098-280.882h-1.968"/><path id="rep1643" stroke-width="1.181" d="M247.823-275.37v1.968"/><path id="rep1644" stroke-width="0" d="M264.102-276.945h-17.204l-.32-.132-.133-.32v-17.205l.132-.32.32-.133h17.205l.32.132.133.32v17.205l-.132.32-.32.133z"/><path id="rep1645" stroke-width="1.181" d="M268.098-283.441h-1.968"/><path id="rep1646" stroke-width="1.181" d="M244.87-278.323h-1.968"/><path id="rep1647" stroke-width="1.181" d="M258.059-298.598v1.968"/><path id="rep1713" stroke-width="0" d="M268.788-219.984h1.574v1.968h-1.574z"/><path id="rep1714" stroke-width="0" d="M265.638-219.98h1.574v1.968h-1.574z"/><path id="rep1726" stroke-width="0" d="M264.137-221.512h-1.574v-1.968h1.574z"/><path id="rep1727" stroke-width="0" d="M267.287-221.516h-1.574v-1.968h1.574z"/><path id="rep1739" stroke-width="0" d="M319.175-270.058v1.574h-1.968v-1.574z"/><path id="rep1740" stroke-width="0" d="M319.171-273.207v1.574h-1.968v-1.574z"/><path id="rep1752" stroke-width="0" d="M323.71-274.748h1.575v1.968h-1.574z"/><path id="rep1753" stroke-width="0" d="M320.562-274.744h1.574v1.968h-1.574z"/><path id="rep1766" stroke-width="0" d="M304.018-274.857v-.59h1.182v.59z"/><path id="rep1767" stroke-width="0" d="M305.2-272.691v.59h-1.182v-.59z"/><path id="rep1768" stroke-width="0" d="M309.137-272.691v.59h-1.182v-.59z"/><path id="rep1769" stroke-width="0" d="M309.137-274.07v.591h-1.182v-.59z"/><path id="rep1770" stroke-width="0" d="M304.018-273.489v-.59h1.182v.59z"/><path id="rep1771" stroke-width="0" d="M309.137-275.447v.59h-1.182v-.59z"/><path id="rep1781" stroke-width="0" d="M169.957-256.799v-2.362h7.086v2.362z"/><path id="rep1782" stroke-width="0" d="M169.957-249.319v-2.362h7.086v2.362z"/><path id="rep1783" stroke-width="0" d="M177.83-253.059v-2.362h7.087v2.362z"/><path id="rep1802" stroke-width="0" d="M172.02-240.059v-2.362h7.086v2.362z"/><path id="rep1803" stroke-width="0" d="M172.02-232.579v-2.362h7.086v2.362z"/><path id="rep1804" stroke-width="0" d="M179.894-236.319v-2.362h7.086v2.362z"/><path id="rep1823" stroke-width="0" d="M254.661-343.457H252.3v-7.086h2.362z"/><path id="rep1824" stroke-width="0" d="M250.921-351.33h-2.362v-7.087h2.362z"/><path id="rep1825" stroke-width="0" d="M247.181-343.457h-2.362v-7.086h2.362z"/><path id="rep1843" stroke-width="0" d="M252.515-312.319v5.906h-4.33v-5.906z"/><path id="rep1844" stroke-width="0" d="M258.815-312.319v5.906h-4.33v-5.906z"/><path id="rep1845" stroke-width="0" d="M252.515-320.587v5.906h-4.33v-5.906z"/><path id="rep1846" stroke-width="0" d="M258.815-320.587v5.906h-4.33v-5.906z"/><path id="rep1850" stroke-width="0" d="M193.925-199.075v3.15h-3.15v-3.15z"/><path id="rep1851" stroke-width="0" d="M187.225-199.075v3.15h-3.15v-3.15z"/><path id="rep1868" stroke-width="0" d="M267.484-230.712v1.574h-1.968v-1.574z"/><path id="rep1869" stroke-width="0" d="M267.48-233.862v1.574h-1.968v-1.574z"/><path id="rep1881" stroke-width="0" d="M261.212-207.016h-1.574v-1.968h1.574z"/><path id="rep1882" stroke-width="0" d="M264.362-207.02h-1.574v-1.968h1.574z"/><path id="rep1894" stroke-width="0" d="M262.788-212.484h1.574v1.968h-1.574z"/><path id="rep1895" stroke-width="0" d="M259.638-212.48h1.574v1.968h-1.574z"/><path id="rep1907" stroke-width="0" d="M269.097-271.796h1.574v1.968h-1.574z"/><path id="rep1908" stroke-width="0" d="M272.246-271.8h1.574v1.968h-1.574z"/><path id="rep1920" stroke-width="0" d="M297.324-273.367h1.574v1.968h-1.574z"/><path id="rep1921" stroke-width="0" d="M300.473-273.371h1.574v1.968h-1.574z"/><path id="rep1933" stroke-width="0" d="M282.681-289.155v1.574h-1.968v-1.574z"/><path id="rep1934" stroke-width="0" d="M282.685-286.006v1.574h-1.968v-1.574z"/><path id="rep1946" stroke-width="0" d="M290.634-273.383h1.574v1.968h-1.574z"/><path id="rep1947" stroke-width="0" d="M293.783-273.387h1.574v1.968h-1.574z"/><path id="rep1959" stroke-width="0" d="M331.585-272.78h-1.574v-1.968h1.574z"/><path id="rep1960" stroke-width="0" d="M334.735-272.783h-1.574v-1.968h1.574z"/><path id="rep1972" stroke-width="0" d="M272.831-291.278v1.574h-1.968v-1.574z"/><path id="rep1973" stroke-width="0" d="M272.835-288.13v1.575h-1.968v-1.574z"/><path id="rep1986" stroke-width="0" d="M274.484-249.104h-3.326v-1.792h3.326z"/><path id="rep1987" stroke-width="0" d="M265.842-249.104h-3.326v-1.792h3.326z"/><path id="rep2007" stroke-width="0" d="M222.104-254.658v-3.326h1.792v3.326z"/><path id="rep2008" stroke-width="0" d="M222.104-246.016v-3.326h1.792v3.326z"/><path id="rep2028" stroke-width="0" d="M139.819-218.866v-2.362h2.362v2.362z"/><path id="rep2029" stroke-width="0" d="M142.181-227.134v2.362h-2.362v-2.362z"/><path id="rep2044" stroke-width="0" d="M142.181-244.134v2.362h-2.362v-2.362z"/><path id="rep2045" stroke-width="0" d="M139.819-235.866v-2.362h2.362v2.362z"/><path id="rep2060" stroke-width="0" d="M136.681-244.134v2.362h-2.362v-2.362z"/><path id="rep2061" stroke-width="0" d="M134.319-235.866v-2.362h2.362v2.362z"/><path id="rep2076" stroke-width="0" d="M293.984-260.604h-3.326v-1.792h3.326z"/><path id="rep2077" stroke-width="0" d="M285.342-260.604h-3.326v-1.792h3.326z"/><path id="rep2096" stroke-width="0" d="M147.56-192.881h-5.12v-3.938h5.12z"/><path id="rep2097" stroke-width="0" d="M147.56-199.181h-5.12v-3.938h5.12z"/><path id="rep2112" stroke-width="0" d="M138.56-192.881h-5.12v-3.938h5.12z"/><path id="rep2113" stroke-width="0" d="M138.56-199.181h-5.12v-3.938h5.12z"/><path id="rep2128" stroke-width="0" d="M264.212-235.516h-1.574v-1.968h1.574z"/><path id="rep2129" stroke-width="0" d="M267.362-235.52h-1.574v-1.968h1.574z"/><path id="rep2141" stroke-width="0" d="M265.788-227.484h1.574v1.968h-1.574z"/><path id="rep2142" stroke-width="0" d="M262.638-227.48h1.574v1.968h-1.574z"/><path id="rep2154" stroke-width="0" d="M265.788-215.984h1.574v1.968h-1.574z"/><path id="rep2155" stroke-width="0" d="M262.638-215.98h1.574v1.968h-1.574z"/><path id="rep2167" stroke-width="0" d="M271.02-280.754v-1.574h1.968v1.574z"/><path id="rep2168" stroke-width="0" d="M271.016-283.904v-1.574h1.968v1.574z"/><path id="rep2180" stroke-width="0" d="M198.94-223.119h5.12v3.938h-5.12z"/><path id="rep2181" stroke-width="0" d="M198.94-216.819h5.12v3.938h-5.12z"/><path id="rep2196" stroke-width="0" d="M189.94-223.119h5.12v3.938h-5.12z"/><path id="rep2197" stroke-width="0" d="M189.94-216.819h5.12v3.938h-5.12z"/><path id="rep2212" stroke-width="0" d="M181.44-223.119h5.12v3.938h-5.12z"/><path id="rep2213" stroke-width="0" d="M181.44-216.819h5.12v3.938h-5.12z"/><path id="rep2228" stroke-width="0" d="M147.56-206.381h-5.12v-3.938h5.12z"/><path id="rep2229" stroke-width="0" d="M147.56-212.681h-5.12v-3.938h5.12z"/><path id="rep2244" stroke-width="0" d="M138.56-206.381h-5.12v-3.938h5.12z"/><path id="rep2245" stroke-width="0" d="M138.56-212.681h-5.12v-3.938h5.12z"/><path id="rep2260" stroke-width="0" d="M274.52-273.638v-1.574h1.968v1.574z"/><path id="rep2261" stroke-width="0" d="M274.516-276.788v-1.574h1.968v1.574z"/><path id="rep2273" stroke-width="0" d="M270.52-273.638v-1.574h1.968v1.574z"/><path id="rep2274" stroke-width="0" d="M270.516-276.788v-1.574h1.968v1.574z"/><path id="rep2286" stroke-width="0" d="M274.816-265.504v-1.574h1.968v1.574z"/><path id="rep2287" stroke-width="0" d="M274.812-268.654v-1.574h1.968v1.574z"/><path id="rep2299" stroke-width="0" d="M266.139-265.497v-1.574h1.968v1.574z"/><path id="rep2300" stroke-width="0" d="M266.135-268.647v-1.574h1.968v1.574z"/><path id="rep2312" stroke-width="0" d="M282.49-269.824h-1.574v-1.968h1.574z"/><path id="rep2313" stroke-width="0" d="M279.341-269.82h-1.574v-1.968h1.574z"/><path id="rep2325" stroke-width="0" d="M338.062-273.207v1.574h-1.968v-1.574z"/><path id="rep2326" stroke-width="0" d="M338.066-270.058v1.574h-1.968v-1.574z"/><path id="rep2338" stroke-width="0" d="M328.62-273.207v1.574h-1.968v-1.574z"/><path id="rep2339" stroke-width="0" d="M328.623-270.058v1.574h-1.968v-1.574z"/><path id="rep2351" stroke-width="0" d="M312.685-272.78h-1.574v-1.968h1.574z"/><path id="rep2352" stroke-width="0" d="M315.834-272.783h-1.574v-1.968h1.574z"/><path id="rep2364" stroke-width="0" d="M286.972-281.458h-1.574v-1.968h1.574z"/><path id="rep2365" stroke-width="0" d="M283.822-281.454h-1.574v-1.968h1.574z"/><path id="rep2377" stroke-width="0" d="M279.744-290.12h-1.574v-1.97h1.574z"/><path id="rep2378" stroke-width="0" d="M276.594-290.117h-1.574v-1.968h1.574z"/><path id="rep2390" stroke-width="0" d="M278.862-281.52h-1.574v-1.968h1.574z"/><path id="rep2391" stroke-width="0" d="M275.712-281.516h-1.574v-1.968h1.574z"/><path id="rep2403" stroke-width="0" d="M278.862-285.02h-1.574v-1.968h1.574z"/><path id="rep2404" stroke-width="0" d="M275.712-285.016h-1.574v-1.968h1.574z"/><path id="rep2437" stroke-width="0" d="M122.28-233.945v2.56h-2.56v-2.56z"/><path id="rep2438" stroke-width="0" d="M122.28-229.614v2.559h-2.56v-2.56z"/><path id="rep2442" stroke-width="0" d="M276.72-243.555v-2.56h2.56v2.56z"/><path id="rep2443" stroke-width="0" d="M276.72-247.886v-2.559h2.56v2.56z"/><path id="rep2447" stroke-width="0" d="M177.22-276.385v-2.56h2.56v2.56z"/><path id="rep2448" stroke-width="0" d="M177.22-272.055v-2.56h2.56v2.56z"/><path id="rep2452" stroke-width="0" d="M186.22-272.055v-2.56h2.56v2.56z"/><path id="rep2453" stroke-width="0" d="M186.22-276.385v-2.56h2.56v2.56z"/><path id="rep2457" stroke-width="0" d="M181.72-272.055v-2.56h2.56v2.56z"/><path id="rep2458" stroke-width="0" d="M181.72-276.385v-2.56h2.56v2.56z"/><path id="rep2462" stroke-width="0" d="M174.78-278.945v2.56h-2.56v-2.56z"/><path id="rep2463" stroke-width="0" d="M174.78-274.615v2.56h-2.56v-2.56z"/><path id="rep2467" stroke-width="0" d="M198.72-198.386v-2.559h2.56v2.56z"/><path id="rep2468" stroke-width="0" d="M198.72-194.055v-2.56h2.56v2.56z"/><path id="rep2472" stroke-width="0" d="M214.886-245.78h2.559v2.56h-2.56z"/><path id="rep2473" stroke-width="0" d="M210.555-245.78h2.56v2.56h-2.56z"/><path id="rep2477" stroke-width="0" d="M214.886-238.78h2.559v2.56h-2.56z"/><path id="rep2478" stroke-width="0" d="M210.555-238.78h2.56v2.56h-2.56z"/><path id="rep2482" stroke-width="0" d="M154.72-239.886v-2.559h2.56v2.56z"/><path id="rep2483" stroke-width="0" d="M154.72-235.555v-2.56h2.56v2.56z"/><path id="rep2487" stroke-width="0" d="M131.28-229.614v2.559h-2.56v-2.56z"/><path id="rep2488" stroke-width="0" d="M131.28-233.945v2.56h-2.56v-2.56z"/><path id="rep2492" stroke-width="0" d="M126.78-229.614v2.559h-2.56v-2.56z"/><path id="rep2493" stroke-width="0" d="M126.78-233.945v2.56h-2.56v-2.56z"/><path id="rep2497" stroke-width="0" d="M162.28-238.114v2.559h-2.56v-2.56z"/><path id="rep2498" stroke-width="0" d="M162.28-242.445v2.56h-2.56v-2.56z"/><path id="rep2502" stroke-width="0" d="M152.28-238.114v2.559h-2.56v-2.56z"/><path id="rep2503" stroke-width="0" d="M152.28-242.445v2.56h-2.56v-2.56z"/><path id="rep2507" stroke-width="0" d="M147.28-238.114v2.559h-2.56v-2.56z"/><path id="rep2508" stroke-width="0" d="M147.28-242.445v2.56h-2.56v-2.56z"/><path id="rep2512" stroke-width="0" d="M167.78-238.114v2.559h-2.56v-2.56z"/><path id="rep2513" stroke-width="0" d="M167.78-242.445v2.56h-2.56v-2.56z"/><path id="rep2517" stroke-width="0" d="M204.28-238.614v2.559h-2.56v-2.56z"/><path id="rep2518" stroke-width="0" d="M204.28-242.945v2.56h-2.56v-2.56z"/><path id="rep2522" stroke-width="0" d="M189.72-243.386v-2.559h2.56v2.56z"/><path id="rep2523" stroke-width="0" d="M189.72-239.055v-2.56h2.56v2.56z"/><path id="rep2527" stroke-width="0" d="M251.445-338.22h-2.56v-2.56h2.56z"/><path id="rep2528" stroke-width="0" d="M247.114-338.22h-2.559v-2.56h2.56z"/><path id="rep2532" stroke-width="0" d="M241.72-315.385v-2.56h2.56v2.56z"/><path id="rep2533" stroke-width="0" d="M241.72-311.055v-2.56h2.56v2.56z"/><path id="rep2537" stroke-width="0" d="M238.72-325.385v-2.56h2.56v2.56z"/><path id="rep2538" stroke-width="0" d="M238.72-321.055v-2.56h2.56v2.56z"/><path id="rep2542" stroke-width="0" d="M301.115-254.22h-2.56v-2.56h2.56z"/><path id="rep2543" stroke-width="0" d="M305.445-254.22h-2.56v-2.56h2.56z"/><path id="rep2547" stroke-width="0" d="M248.72-266.385v-2.56h2.56v2.56z"/><path id="rep2548" stroke-width="0" d="M248.72-262.055v-2.56h2.56v2.56z"/><path id="rep2552" stroke-width="0" d="M253.72-266.385v-2.56h2.56v2.56z"/><path id="rep2553" stroke-width="0" d="M253.72-262.055v-2.56h2.56v2.56z"/><path id="rep2557" stroke-width="0" d="M258.22-266.385v-2.56h2.56v2.56z"/><path id="rep2558" stroke-width="0" d="M258.22-262.055v-2.56h2.56v2.56z"/><path id="rep2562" stroke-width="0" d="M301.115-250.22h-2.56v-2.56h2.56z"/><path id="rep2563" stroke-width="0" d="M305.445-250.22h-2.56v-2.56h2.56z"/><path id="rep2567" stroke-width="0" d="M243.72-266.385v-2.56h2.56v2.56z"/><path id="rep2568" stroke-width="0" d="M243.72-262.055v-2.56h2.56v2.56z"/><path id="rep2572" stroke-width="0" d="M239.78-313.615v2.56h-2.56v-2.56z"/><path id="rep2573" stroke-width="0" d="M239.78-317.945v2.56h-2.56v-2.56z"/><path id="rep2577" stroke-width="0" d="M277.469-207.3h-3.938v-3.936h3.938z"/><path id="rep2578" stroke-width="0" d="M271.76-196.67h-4.134v-8.66h4.134z"/><path id="rep2579" stroke-width="0" d="M283.374-196.67h-4.134v-8.66h4.134z"/><path id="rep2583" stroke-width="0" d="M320.469-256.8h-3.938v-3.936h3.938z"/><path id="rep2584" stroke-width="0" d="M314.76-246.17h-4.134v-8.66h4.134z"/><path id="rep2585" stroke-width="0" d="M326.374-246.17h-4.134v-8.66h4.134z"/><path id="rep2589" stroke-width="0" d="M133.22-218.555v-2.56h2.56v2.56z"/><path id="rep2590" stroke-width="0" d="M133.22-222.886v-2.559h2.56v2.56z"/><path id="rep2594" stroke-width="0" d="M268.385-245.28h2.56v2.56h-2.56z"/><path id="rep2595" stroke-width="0" d="M264.055-245.28h2.56v2.56h-2.56z"/><path id="rep2599" stroke-width="0" d="M303.055-281.28h2.56v2.56h-2.56z"/><path id="rep2600" stroke-width="0" d="M307.385-281.28h2.56v2.56h-2.56z"/><path id="rep2604" stroke-width="0" d="M219.728-266.775v-3.544h3.544v3.544z"/><path id="rep2605" stroke-width="0" d="M219.728-272.681v-3.544h3.544v3.544z"/><path id="rep2609" stroke-width="0" d="M260.051-192.28h2.56v2.56h-2.56z"/><path id="rep2610" stroke-width="0" d="M255.72-192.28h2.56v2.56h-2.56z"/><path id="rep2614" stroke-width="0" d="M276.115-189.22h-2.56v-2.56h2.56z"/><path id="rep2615" stroke-width="0" d="M280.445-189.22h-2.56v-2.56h2.56z"/><path id="rep2619" stroke-width="0" d="M258.28-216.614v2.559h-2.56v-2.56z"/><path id="rep2620" stroke-width="0" d="M258.28-220.945v2.56h-2.56v-2.56z"/><path id="rep2624" stroke-width="0" d="M198.78-238.614v2.559h-2.56v-2.56z"/><path id="rep2625" stroke-width="0" d="M198.78-242.945v2.56h-2.56v-2.56z"/><path id="rep2629" stroke-width="0" d="M243.22-321.055v-2.56h2.56v2.56z"/><path id="rep2630" stroke-width="0" d="M243.22-325.385v-2.56h2.56v2.56z"/><path id="rep2634" stroke-width="0" d="M224.94-265.398v-5.118h5.12v5.118z"/><path id="rep2635" stroke-width="0" d="M224.94-272.484v-5.118h5.12v5.118z"/><path id="rep2639" stroke-width="0" d="M231.94-265.398v-5.118h5.12v5.118z"/><path id="rep2640" stroke-width="0" d="M231.94-272.484v-5.118h5.12v5.118z"/><path id="rep2644" stroke-width="0" d="M305.445-246.22h-2.56v-2.56h2.56z"/><path id="rep2645" stroke-width="0" d="M301.115-246.22h-2.56v-2.56h2.56z"/><path id="rep2649" stroke-width="0" d="M239.22-262.055v-2.56h2.56v2.56z"/><path id="rep2650" stroke-width="0" d="M239.22-266.385v-2.56h2.56v2.56z"/><path id="rep2654" stroke-width="0" d="M278.78-258.115v2.56h-2.56v-2.56z"/><path id="rep2655" stroke-width="0" d="M278.78-262.445v2.56h-2.56v-2.56z"/><path id="rep2659" stroke-width="0" d="M268.28-312.615v2.56h-2.56v-2.56z"/><path id="rep2660" stroke-width="0" d="M268.28-316.945v2.56h-2.56v-2.56z"/><path id="rep2664" stroke-width="0" d="M277.78-312.615v2.56h-2.56v-2.56z"/><path id="rep2665" stroke-width="0" d="M277.78-316.945v2.56h-2.56v-2.56z"/><path id="rep2669" stroke-width="0" d="M273.28-316.945v2.56h-2.56v-2.56z"/><path id="rep2670" stroke-width="0" d="M273.28-312.615v2.56h-2.56v-2.56z"/><path id="rep2674" stroke-width="0" d="M263.28-312.615v2.56h-2.56v-2.56z"/><path id="rep2675" stroke-width="0" d="M263.28-316.945v2.56h-2.56v-2.56z"/><path id="rep2679" stroke-width="0" d="M252.614-323.22h-2.559v-2.56h2.56z"/><path id="rep2680" stroke-width="0" d="M256.945-323.22h-2.56v-2.56h2.56z"/><path id="rep1280" stroke-width="0" d="M210.897-271.158h-9.448v.04l9.448 9.449v-9.489"/><path id="rep1774" stroke-width="0" d="M306.971-275.428v3.307h-.787v-1.023l-.472-.315h-1.733v-.63h1.733l.472-.394v-.945h.787"/><g id="rep1305"><path stroke-width="3.937" d="M126.593-275.508h-4.33"/><path stroke-width="2.362" d="M122.066-275.508h4.724"/></g><g id="rep1306"><path stroke-width="3.937" d="M126.593-241.492h-4.33"/><path stroke-width="2.362" d="M122.066-241.492h4.724"/></g><g id="rep1307"><path stroke-width="3.937" d="M109.152-275.508h-2.362"/><path stroke-width="2.362" d="M106.79-275.508h2.362"/></g><g id="rep1308"><path stroke-width="3.937" d="M109.152-241.492h-2.362"/><path stroke-width="2.362" d="M106.79-241.492h2.362"/></g><g id="rep1309"><circle cx="122.341" cy="-270.232" r="1.378" stroke-width="0"/><path stroke-width="2.756" d="M122.341-270.242v.02"/></g><g id="rep1310"><circle cx="122.341" cy="-246.767" r="1.378" stroke-width="0"/><path stroke-width="2.756" d="M122.341-246.777v.02"/></g><g id="rep2421"><circle cx="293.342" cy="-340" r="3.543" stroke-width="0"/><path stroke-width="3.937" d="M293.332-340h.02"/></g><g id="rep2422"><circle cx="273.656" cy="-340" r="3.543" stroke-width="0"/><path stroke-width="3.937" d="M273.646-340h.02"/></g><circle id="rep2429" cx="314" cy="-220" r="3" stroke-width="0"/><g id="rep1648"><circle cx="257.862" cy="-278.913" r="1.181" stroke-width="0"/><circle cx="257.862" cy="-278.913" r=".591" stroke-width="0"/></g><g id="rep1649"><circle cx="262.587" cy="-278.913" r="1.181" stroke-width="0"/><circle cx="262.587" cy="-278.913" r=".591" stroke-width="0"/></g><g id="rep1650"><circle cx="262.587" cy="-283.638" r="1.181" stroke-width="0"/><circle cx="262.587" cy="-283.638" r=".591" stroke-width="0"/></g><g id="rep1651"><circle cx="257.862" cy="-283.638" r="1.181" stroke-width="0"/><circle cx="257.862" cy="-283.638" r=".591" stroke-width="0"/></g><g id="rep1652"><circle cx="253.138" cy="-288.362" r="1.181" stroke-width="0"/><circle cx="253.138" cy="-288.362" r=".591" stroke-width="0"/></g><g id="rep1653"><circle cx="257.862" cy="-288.362" r="1.181" stroke-width="0"/><circle cx="257.862" cy="-288.362" r=".591" stroke-width="0"/></g><g id="rep1654"><circle cx="262.587" cy="-288.362" r="1.181" stroke-width="0"/><circle cx="262.587" cy="-288.362" r=".591" stroke-width="0"/></g><g id="rep1655"><circle cx="248.413" cy="-293.087" r="1.181" stroke-width="0"/><circle cx="248.413" cy="-293.087" r=".591" stroke-width="0"/></g><g id="rep1656"><circle cx="248.413" cy="-288.362" r="1.181" stroke-width="0"/><circle cx="248.413" cy="-288.362" r=".591" stroke-width="0"/></g><g id="rep1657"><circle cx="248.413" cy="-278.913" r="1.181" stroke-width="0"/><circle cx="248.413" cy="-278.913" r=".591" stroke-width="0"/></g><g id="rep1658"><circle cx="253.138" cy="-283.638" r="1.181" stroke-width="0"/><circle cx="253.138" cy="-283.638" r=".591" stroke-width="0"/></g><g id="rep1659"><circle cx="257.862" cy="-293.087" r="1.181" stroke-width="0"/><circle cx="257.862" cy="-293.087" r=".591" stroke-width="0"/></g><g id="rep1660"><circle cx="253.138" cy="-293.087" r="1.181" stroke-width="0"/><circle cx="253.138" cy="-293.087" r=".591" stroke-width="0"/></g><g id="rep1661"><circle cx="262.587" cy="-293.087" r="1.181" stroke-width="0"/><circle cx="262.587" cy="-293.087" r=".591" stroke-width="0"/></g><g id="rep1662"><circle cx="253.138" cy="-278.913" r="1.181" stroke-width="0"/><circle cx="253.138" cy="-278.913" r=".591" stroke-width="0"/></g><g id="rep1663"><circle cx="248.413" cy="-283.638" r="1.181" stroke-width="0"/><circle cx="248.413" cy="-283.638" r=".591" stroke-width="0"/></g><path id="rep1236" fill="none" stroke-linecap="round" stroke-width=".787" d="M177.689-202.095h-26.378v-11.81h26.378v11.81"/><path id="rep1255" fill="none" stroke-linecap="round" stroke-width="1" d="M109.35-229.1h-5.8v-6.8h5.8"/><path id="rep1258" fill="none" stroke-linecap="round" stroke-width="1" d="M111.65-229.1h4.6l1.4-1.4v-4l-1.4-1.4h-4.5"/><path id="rep1263" fill="none" stroke-linecap="round" stroke-width=".799" d="M110.2-231v-3.1"/><path id="rep1264" fill="none" stroke-linecap="round" stroke-width=".799" d="M110.2-232.531h.69"/><path id="rep1275" fill="none" stroke-linecap="round" stroke-width="1" d="m200.854-257.244 7.441-6.102"/><path id="rep1276" fill="none" stroke-linecap="round" stroke-width="1" d="m196.051-262.047 7.638-5.945"/><path id="rep1277" fill="none" stroke-linecap="round" stroke-width="1" d="m214.52-271.02.04 5.315"/><path id="rep1278" fill="none" stroke-linecap="round" stroke-width="1" d="m211.949-268.345 5.315-.04"/><path id="rep1279" fill="none" stroke-linecap="round" stroke-width="1" d="m212.53-252.95 5.316-.039"/><path id="rep1311" fill="none" stroke-linecap="round" stroke-width="1" d="M129.471-275.5H130v2.212"/><path id="rep1312" fill="none" stroke-linecap="round" stroke-width="1" d="M112.03-275.5h7.354"/><path id="rep1313" fill="none" stroke-linecap="round" stroke-width="1" d="M103.91-275.5H98v34h5.91"/><path id="rep1316" fill="none" stroke-linecap="round" stroke-width="1" d="M112.03-241.5h7.354"/><path id="rep1317" fill="none" stroke-linecap="round" stroke-width="1" d="M129.471-241.5H130v-2.232"/><path id="rep1398" fill="none" stroke-linecap="round" stroke-width="1" d="M253-235.595h-16.8v-11.811h5.5"/><path id="rep1399" fill="none" stroke-linecap="round" stroke-width="1" d="M247.5-247.406h5.5"/><path id="rep1400" fill="none" stroke-linecap="round" stroke-width="1" d="M253-235.74v-11.665"/><path id="rep1414" fill="none" stroke-linecap="round" stroke-width=".6" d="M259.231-198.55h4.538"/><path id="rep1415" fill="none" stroke-linecap="round" stroke-width=".6" d="M259.231-205.45h4.538"/><path id="rep1439" fill="none" stroke-linecap="round" stroke-width=".6" d="M211.106-193.715v.897h38.788v-.897"/><path id="rep1442" fill="none" stroke-linecap="round" stroke-width=".6" d="M249.894-232.285v-.897h-38.788v.897"/><path id="rep1475" fill="none" stroke-linecap="round" stroke-width=".787" d="M156.882-250.5h1.618v-1.617"/><path id="rep1476" fill="none" stroke-linecap="round" stroke-width=".787" d="M156.882-266.5h1.618v1.617"/><path id="rep1478" fill="none" stroke-linecap="round" stroke-width=".787" d="M142.5-264.883v-1.617h1.617"/><path id="rep1480" fill="none" stroke-linecap="round" stroke-width=".787" d="M142.5-252.117v1.617h1.617"/><path id="rep1526" fill="none" stroke-linecap="round" stroke-width="1" d="M228.182-286h3.224v-10.251"/><path id="rep1527" fill="none" stroke-linecap="round" stroke-width="1" d="M131.012-286v-70.866h26.806"/><path id="rep1528" fill="none" stroke-linecap="round" stroke-width="1" d="M131.012-286h26.806"/><path id="rep1530" fill="none" stroke-linecap="round" stroke-width="1" d="M155.5-286v-70.866"/><path id="rep1531" fill="none" stroke-linecap="round" stroke-width="1" d="M153-341.433h-20v-5"/><path id="rep1533" fill="none" stroke-linecap="round" stroke-width="1" d="M153-288.933h-20v-10h17.5v-10H133v-10h17.5v-12.5H133v-10"/><path id="rep1543" fill="none" stroke-linecap="round" stroke-width="1" d="m160.5-291.433-2.5-7.5h5l-2.5 7.5"/><path id="rep1547" fill="none" stroke-linecap="round" stroke-width="1" d="M231.405-346.615v-10.251h-3.223"/><path id="rep1549" fill="none" stroke-linecap="round" stroke-width="1" d="M133-348.933h22.5v2.5H133v-2.5"/><path id="rep1613" fill="none" stroke-linecap="round" stroke-width=".591" d="M285.178-275.148h2.756"/><path id="rep1614" fill="none" stroke-linecap="round" stroke-width=".591" d="M285.178-269.636h2.756"/><path id="rep1664" fill="none" stroke-linecap="round" stroke-width=".394" d="M265.342-298.598h1.969l.787.787v1.969"/><path id="rep1666" fill="none" stroke-linecap="round" stroke-width=".394" d="M265.342-273.402h2.756v-2.756"/><path id="rep1668" fill="none" stroke-linecap="round" stroke-width=".394" d="M242.902-276.158v2.756h2.756"/><path id="rep1670" fill="none" stroke-linecap="round" stroke-width=".394" d="M242.902-295.842v-2.756h2.756"/><path id="rep1772" fill="none" stroke-linecap="round" stroke-width=".591" d="M305.304-276.136h2.548"/><path id="rep1773" fill="none" stroke-linecap="round" stroke-width=".591" d="M305.304-271.412h2.548"/><path id="rep1784" fill="none" stroke-linecap="round" stroke-width=".787" d="M178.618-260.146h1.575v3.15"/><path id="rep1786" fill="none" stroke-linecap="round" stroke-width=".787" d="M178.618-248.335h1.575v-3.15"/><path id="rep1805" fill="none" stroke-linecap="round" stroke-width=".787" d="M180.681-243.406h1.575v3.15"/><path id="rep1807" fill="none" stroke-linecap="round" stroke-width=".787" d="M180.681-231.594h1.575v-3.15"/><path id="rep1826" fill="none" stroke-linecap="round" stroke-width=".787" d="M252.496-353.693h3.15v1.575"/><path id="rep1828" fill="none" stroke-linecap="round" stroke-width=".787" d="M243.835-352.118v-1.575h3.15"/><path id="rep1852" fill="none" stroke-linecap="round" stroke-width=".799" d="M188.7-197.531h.69"/><path id="rep1853" fill="none" stroke-linecap="round" stroke-width=".799" d="M188.7-196v-3.1"/><path id="rep1854" fill="none" stroke-linecap="round" stroke-width="1" d="M190.15-194.1h4.6l1.4-1.4v-4l-1.4-1.4h-4.5"/><path id="rep1859" fill="none" stroke-linecap="round" stroke-width="1" d="M187.85-194.1h-5.8v-6.8h5.8"/><path id="rep1988" fill="none" stroke-linecap="round" stroke-width=".6" d="M265.05-252.86h6.9v1.164"/><path id="rep1990" fill="none" stroke-linecap="round" stroke-width=".6" d="M265.05-247.14h6.9v-1.164"/><path id="rep1992" fill="none" stroke-linecap="round" stroke-width=".6" d="M266.643-247.14v-5.72"/><path id="rep2009" fill="none" stroke-linecap="round" stroke-width=".6" d="M224.696-248.55h1.163v-6.9"/><path id="rep2011" fill="none" stroke-linecap="round" stroke-width=".6" d="M221.304-248.55h-1.163v-6.9"/><path id="rep2013" fill="none" stroke-linecap="round" stroke-width=".6" d="M220.14-253.857h5.72"/><path id="rep2030" fill="none" stroke-linecap="round" stroke-width=".512" d="M142.969-220.44v-5.12"/><path id="rep2031" fill="none" stroke-linecap="round" stroke-width=".512" d="M139.031-220.44v-5.12"/><path id="rep2032" fill="none" stroke-linecap="round" stroke-width=".394" d="M140-223h1.9"/><path id="rep2046" fill="none" stroke-linecap="round" stroke-width=".512" d="M139.031-237.44v-5.12"/><path id="rep2047" fill="none" stroke-linecap="round" stroke-width=".512" d="M142.969-237.44v-5.12"/><path id="rep2048" fill="none" stroke-linecap="round" stroke-width=".394" d="M140.1-240h1.9"/><path id="rep2062" fill="none" stroke-linecap="round" stroke-width=".512" d="M133.531-237.44v-5.12"/><path id="rep2063" fill="none" stroke-linecap="round" stroke-width=".512" d="M137.469-237.44v-5.12"/><path id="rep2064" fill="none" stroke-linecap="round" stroke-width=".394" d="M134.6-240h1.9"/><path id="rep2078" fill="none" stroke-linecap="round" stroke-width=".6" d="M284.55-264.36h6.9v1.164"/><path id="rep2080" fill="none" stroke-linecap="round" stroke-width=".6" d="M284.55-258.64h6.9v-1.164"/><path id="rep2082" fill="none" stroke-linecap="round" stroke-width=".6" d="M286.143-258.64v-5.72"/><path id="rep2098" fill="none" stroke-linecap="round" stroke-width=".787" d="M142.835-198h4.33"/><path id="rep2114" fill="none" stroke-linecap="round" stroke-width=".787" d="M133.835-198h4.33"/><path id="rep2182" fill="none" stroke-linecap="round" stroke-width=".787" d="M199.335-218h4.33"/><path id="rep2198" fill="none" stroke-linecap="round" stroke-width=".787" d="M190.335-218h4.33"/><path id="rep2214" fill="none" stroke-linecap="round" stroke-width=".787" d="M181.835-218h4.33"/><path id="rep2230" fill="none" stroke-linecap="round" stroke-width=".787" d="M142.835-211.5h4.33"/><path id="rep2246" fill="none" stroke-linecap="round" stroke-width=".787" d="M133.835-211.5h4.33"/><path id="rep2423" fill="none" stroke-linecap="round" stroke-width="1" d="M273-345v-3.5"/><path id="rep2424" fill="none" stroke-linecap="round" stroke-width="1" d="M271.5-346.5h3"/><path id="rep2430" fill="none" stroke-linecap="round" stroke-width="1" d="M337.622-192.835h-47.244v-47.244h47.244v47.244"/><path id="rep1229" fill="none" stroke-width=".787" d="M150.326-193.377h2.14l.43-.14.29-.29.14-.43v-.28l-.14-.43-.29-.29-.43-.14h-2.14m0-2.38 2 1.43v-2.15m-2 .72h3"/><path id="rep1251" fill="none" stroke-width=".787" d="M102.73-228.18v3.01m0 0h1.72m.94-3.01v3.01m0-3.01h1.86m-1.86 1.43h1.15m-1.15 1.58h1.86m.95-3.01v3.01m0-3.01h1l.43.14.28.29.15.29.14.43v.71l-.14.43-.15.29-.28.28-.43.15h-1m3.09-2.29v-.15l.14-.28.15-.15.28-.14h.57l.29.14.14.15.15.28v.29l-.15.29-.28.43-1.43 1.43h2"/><path id="rep1269" fill="none" stroke-width=".787" d="M191.88-276.68v2.15l.14.43.29.28.43.15h.28l.43-.15.29-.28.14-.43v-2.15m1.66 0-.43.14-.14.29v.29l.14.28.29.15.57.14.43.14.29.29.14.29v.43l-.14.28-.15.14-.43.15h-.57l-.43-.15-.14-.14-.14-.28v-.43l.14-.29.28-.29.43-.14.58-.14.28-.15.15-.28v-.29l-.15-.29-.43-.14h-.57"/><path id="rep1287" fill="none" stroke-width=".787" d="M133.25-278.68v2.15l.15.43.28.28.43.15h.29l.43-.15.28-.28.15-.43v-2.15m2.95.43-.29-.29-.43-.14h-.57l-.43.14-.29.29v.29l.14.28.15.15.28.14.86.29.29.14.14.14.15.29v.43l-.29.28-.43.15h-.57l-.43-.15-.29-.28m2.95-2.58v3.01m0-3.01h1.29l.43.14.14.15.15.28v.29l-.15.29-.14.14-.43.14m-1.29 0h1.29l.43.15.14.14.15.29v.43l-.15.28-.14.14-.43.15h-1.29m2.95-2.44.29-.14.43-.43v3.01"/><path id="rep1385" fill="none" stroke-width=".787" d="M236.38-254.18v2.15l.14.43.29.28.43.15h.28l.43-.15.29-.28.14-.43v-2.15m2.81 1-.15.43-.28.29-.43.14h-.15l-.43-.14-.28-.29-.14-.43v-.14l.14-.43.28-.29.43-.14h.15l.43.14.28.29.15.57v.72l-.15.72-.28.42-.43.15h-.29l-.43-.15-.14-.28"/><path id="rep1404" fill="none" stroke-width=".787" d="M258.88-198.68v2.15l.14.43.29.28.43.15h.28l.43-.15.29-.28.14-.43v-2.15m2.95 0-1.43 3.01m-.57-3.01h2"/><path id="rep1417" fill="none" stroke-width=".787" d="M211.38-192.68v2.15l.14.43.29.28.43.15h.28l.43-.15.29-.28.14-.43v-2.15m2.66.43-.14-.29-.43-.14h-.29l-.43.14-.28.43-.14.72v.72l.14.57.28.28.43.15h.15l.43-.15.28-.28.15-.43v-.14l-.15-.43-.28-.29-.43-.14h-.15l-.43.14-.28.29-.14.43"/><path id="rep1446" fill="none" stroke-width=".787" d="M148.38-275.68v2.15l.14.43.29.28.43.15h.28l.43-.15.29-.28.14-.43v-2.15m2.66 0h-1.43l-.14 1.29.14-.14.43-.15h.43l.43.15.29.28.14.43v.29l-.14.43-.29.28-.43.15h-.43l-.43-.15-.14-.14-.14-.28"/><path id="rep1484" fill="none" stroke-width=".787" d="M234.88-358.17v2.14l.15.43.28.29.43.14h.29l.43-.14.29-.29.14-.43v-2.14m1.23 0h1.57l-.85 1.14h.42l.29.14.14.15.15.43v.28l-.15.43-.28.29-.43.14h-.43l-.43-.14-.14-.14-.15-.29"/><path id="rep1616" fill="none" stroke-width=".787" d="M270.4-300.18v2.15l.14.43.29.28.43.15h.29l.43-.15.28-.28.15-.43v-2.15m.94.57.29-.14.43-.43v3.01"/><path id="rep1711" fill="none" stroke-width=".787" d="M271.8-222.18v3.01m0-3.01h1.29l.43.14.14.15.15.28v.29l-.15.29-.14.14-.43.14h-1.29m1 0 1.01 1.58m1.08-2.29v-.15l.15-.28.14-.15.29-.14h.57l.29.14.14.15.14.28v.29l-.14.29-.29.43-1.43 1.43h2.01m2.94-3.01-1.43 3.01m-.57-3.01h2"/><path id="rep1724" fill="none" stroke-width=".787" d="M268.73-226.17v3m0-3h1.29l.43.14.14.14.14.29v.28l-.14.29-.14.14-.43.15h-1.29m1 0 1 1.57m1.09-2.29v-.14l.14-.29.15-.14.28-.14h.57l.29.14.14.14.15.29v.28l-.15.29-.28.43-1.43 1.43h2m2.38-3-1.43 2h2.14m-.71-2v3"/><path id="rep1737" fill="none" stroke-width=".787" d="M319.326-265.877h3m-3 0v-1.29l.14-.43.14-.14.29-.14h.28l.29.14.14.14.15.43v1.29m0-1 1.57-1m-2-2.81.43.14.28.29.15.43v.14l-.15.43-.28.29-.43.14h-.15l-.42-.14-.29-.29-.14-.43v-.14l.14-.43.29-.29.57-.14h.71l.72.14.43.29.14.43v.29l-.14.43-.29.14"/><path id="rep1750" fill="none" stroke-width=".787" d="M319.826-276.377h3m-3 0v-1.29l.14-.43.14-.14.29-.14h.28l.29.14.14.14.15.43v1.29m0-1 1.57-1m-3-1.66.14.43.29.14h.28l.29-.14.14-.29.14-.57.15-.43.28-.29.29-.14h.43l.29.14.14.14.14.43v.58l-.14.43-.14.14-.29.14h-.43l-.29-.14-.28-.29-.15-.43-.14-.57-.14-.29-.29-.14h-.28l-.29.14-.14.43v.58"/><path id="rep1763" fill="none" stroke-width=".787" d="M302.09-292.18v2.15l.14.43.29.28.43.15h.28l.43-.15.29-.28.14-.43v-2.15m.95.57.28-.14.43-.43v3.01m.95-2.44.29-.14.42-.43v3.01"/><path id="rep1778" fill="none" stroke-width=".787" d="m182.24-262.68-.29.14-.29.29-.14.29-.14.43v.71l.14.43.14.29.29.28.29.15h.57l.28-.15.29-.28.14-.29.15-.43v-.71l-.15-.43-.14-.29-.29-.29-.28-.14h-.57m.42 2.44.86.85m2.52-3.29-1.43 2.01h2.15m-.72-2.01v3.01"/><path id="rep1799" fill="none" stroke-width=".787" d="m184.3-245.92-.29.14-.28.29-.15.29-.14.43v.71l.14.43.15.29.28.28.29.15h.57l.29-.15.28-.28.15-.29.14-.43v-.71l-.14-.43-.15-.29-.28-.29-.29-.14h-.57m.43 2.43.86.86m1.37-3.29h1.58l-.86 1.15h.43l.28.14.15.14.14.43v.29l-.14.43-.29.28-.43.15h-.43l-.43-.15-.14-.14-.15-.29"/><path id="rep1820" fill="none" stroke-width=".787" d="m242.74-366.18-.29.14-.29.29-.14.29-.14.43v.71l.14.43.14.29.29.28.29.15h.57l.28-.15.29-.28.14-.29.15-.43v-.71l-.15-.43-.14-.29-.29-.29-.28-.14h-.57m.42 2.44.86.85m1.23-2.57v-.15l.15-.28.14-.15.29-.14h.57l.29.14.14.15.14.28v.29l-.14.29-.29.43-1.43 1.43h2.01"/><path id="rep1841" fill="none" stroke-width=".787" d="m261.26-323.18-.29.14-.28.29-.15.29-.14.43v.71l.14.43.15.29.28.28.29.15h.57l.29-.15.29-.28.14-.29.14-.43v-.71l-.14-.43-.14-.29-.29-.29-.29-.14h-.57m.43 2.44.86.85m1.09-2.72.28-.14.43-.43v3.01"/><path id="rep1848" fill="none" stroke-width=".787" d="M183.75-193.68v3.01m0 0h1.72m.95-3.01v3.01m0-3.01h1.86m-1.86 1.43h1.14m-1.14 1.58h1.86m.94-3.01v3.01m0-3.01h1l.43.14.29.29.14.29.15.43v.71l-.15.43-.14.29-.29.28-.43.15h-1m2.95-2.44.29-.14.43-.43v3.01"/><path id="rep1866" fill="none" stroke-width=".787" d="M268.38-234.68v3.01m0 0h1.71m2.81-2.01-.14.43-.29.29-.43.14h-.14l-.43-.14-.29-.29-.14-.43v-.14l.14-.43.29-.29.43-.14h.14l.43.14.29.29.14.57v.72l-.14.72-.29.42-.43.15h-.29l-.42-.15-.15-.28"/><path id="rep1879" fill="none" stroke-width=".787" d="M265.88-210.68v3.01m0 0h1.71m1.66-3.01-.42.14-.15.29v.29l.15.28.28.15.57.14.43.14.29.29.14.29v.43l-.14.28-.14.14-.43.15h-.58l-.42-.15-.15-.14-.14-.28v-.43l.14-.29.29-.29.43-.14.57-.14.29-.15.14-.28v-.29l-.14-.29-.43-.14h-.58"/><path id="rep1892" fill="none" stroke-width=".787" d="M265.88-214.68v3.01m0 0h1.71m2.95-3.01-1.43 3.01m-.57-3.01h2"/><path id="rep1905" fill="none" stroke-width=".787" d="M268.88-270.68v3.01m0 0h1.71m2.67-2.58-.15-.29-.43-.14h-.28l-.43.14-.29.43-.14.72v.72l.14.57.29.28.43.15h.14l.43-.15.29-.28.14-.43v-.14l-.14-.43-.29-.29-.43-.14h-.14l-.43.14-.29.29-.14.43"/><path id="rep1918" fill="none" stroke-width=".787" d="M297.88-271.68v3.01m0 0h1.71m2.67-3.01h-1.43l-.15 1.29.15-.14.42-.15h.43l.43.15.29.28.14.43v.29l-.14.43-.29.28-.43.15h-.43l-.42-.15-.15-.14-.14-.28"/><path id="rep1931" fill="none" stroke-width=".787" d="M283.88-291.18v3.01m0 0h1.71m1.09-2.29v-.15l.15-.28.14-.15.28-.14h.58l.28.14.15.15.14.28v.29l-.14.29-.29.43-1.43 1.43h2"/><path id="rep1944" fill="none" stroke-width=".787" d="M290.38-271.68v3.01m0 0h1.71m2.38-3.01-1.43 2.01h2.15m-.72-2.01v3.01"/><path id="rep1957" fill="none" stroke-width=".787" d="M329.326-276.377h3m0 0v-1.72m-3-1.23v-1.57l1.14.86v-.43l.14-.29.15-.14.43-.15h.28l.43.15.29.28.14.43v.43l-.14.43-.14.14-.29.15"/><path id="rep1983" fill="none" stroke-width=".787" d="M255.88-252.68v3.01m0-3.01h1l.43.14.28.29.15.29.14.43v.71l-.14.43-.15.29-.28.28-.43.15h-1m3.66-3.01-.43.14-.14.29v.29l.14.28.29.15.57.14.43.14.29.29.14.29v.43l-.14.28-.15.14-.43.15h-.57l-.43-.15-.14-.14-.14-.28v-.43l.14-.29.28-.29.43-.14.58-.14.28-.15.15-.28v-.29l-.15-.29-.43-.14h-.57"/><path id="rep2004" fill="none" stroke-width=".787" d="M220.88-264.68v3.01m0-3.01h1l.43.14.28.29.15.29.14.43v.71l-.14.43-.15.29-.28.28-.43.15h-1m4.95-3.01-1.43 3.01m-.57-3.01h2"/><path id="rep2025" fill="none" stroke-width=".787" d="M146.326-218.377h3m-3 0v-1l.14-.43.29-.29.28-.14.43-.14h.72l.43.14.28.14.29.29.14.43v1m-2.57-4.67-.29.15-.14.43v.28l.14.43.43.29.71.14h.72l.57-.14.29-.29.14-.43v-.14l-.14-.43-.29-.29-.43-.14h-.14l-.43.14-.29.29-.14.43v.14l.14.43.29.29.43.14"/><path id="rep2041" fill="none" stroke-width=".787" d="M137.826-228.877h3m-3 0v-1l.14-.43.29-.29.28-.14.43-.14h.72l.43.14.28.14.29.29.14.43v1m-3-4.67v1.44l1.28.14-.14-.14-.14-.43v-.43l.14-.43.29-.29.43-.14h.28l.43.14.29.29.14.43v.43l-.14.43-.14.14-.29.14"/><path id="rep2057" fill="none" stroke-width=".787" d="M132.326-228.877h3m-3 0v-1l.14-.43.29-.29.28-.14.43-.14h.72l.43.14.28.14.29.29.14.43v1m-3-4.38 2 1.43v-2.15m-2 .72h3"/><path id="rep2073" fill="none" stroke-width=".787" d="M286.4-259.18v3.01m0-3.01h1l.43.14.29.29.14.29.15.43v.71l-.15.43-.14.29-.29.28-.43.15h-1m2.95-2.44.29-.14.43-.43v3.01"/><path id="rep2094" fill="none" stroke-width=".787" d="m147.462-188.549.29-.15.28-.28.15-.29v-.57l-.15-.29-.28-.28-.29-.15-.43-.14h-.71l-.43.14-.29.15-.29.28-.14.29v.57l.14.29.29.28.29.15m2.29 2.37-2.01-1.43v2.15m2.01-.72h-3.01m3.01 3.1-2.01-1.43v2.14m2.01-.71h-3.01"/><path id="rep2110" fill="none" stroke-width=".787" d="m138.462-188.549.29-.15.28-.28.15-.29v-.57l-.15-.29-.28-.28-.29-.15-.43-.14h-.71l-.43.14-.29.15-.29.28-.14.29v.57l.14.29.29.28.29.15m2.29 2.37-2.01-1.43v2.15m2.01-.72h-3.01m3.01 1.95v1.58l-1.15-.86v.43l-.14.28-.15.15-.42.14h-.29l-.43-.14-.29-.29-.14-.43v-.43l.14-.43.15-.14.28-.14"/><path id="rep2126" fill="none" stroke-width=".787" d="m270.45-238.96-.14-.29-.29-.29-.29-.14h-.57l-.29.14-.28.29-.14.29-.15.43v.71l.15.43.14.29.28.28.29.15h.57l.29-.15.29-.28.14-.29m1.23-2.29h1.58l-.86 1.15h.43l.28.14.15.14.14.43v.29l-.14.43-.29.28-.43.15h-.43l-.43-.15-.14-.14-.15-.28m3.67-2.44-.43.14-.14.29v.29l.14.28.29.15.57.14.43.14.28.29.15.29v.43l-.15.28-.14.14-.43.15h-.57l-.43-.15-.14-.14-.15-.28v-.43l.15-.29.28-.29.43-.14.58-.14.28-.15.14-.28v-.29l-.14-.29-.43-.14h-.57"/><path id="rep2139" fill="none" stroke-width=".787" d="m271.95-229.46-.14-.29-.29-.29-.29-.14h-.57l-.29.14-.28.29-.14.29-.15.43v.71l.15.43.14.29.28.28.29.15h.57l.29-.15.29-.28.14-.29m1.23-2.29h1.58l-.86 1.15h.43l.28.14.15.14.14.43v.29l-.14.43-.29.28-.43.15h-.43l-.43-.15-.14-.14-.15-.28m4.96-2.44-1.43 3.01m-.58-3.01h2.01"/><path id="rep2152" fill="none" stroke-width=".787" d="m270.95-217.46-.14-.29-.29-.29-.29-.14h-.57l-.29.14-.28.29-.14.29-.15.43v.71l.15.43.14.29.28.28.29.15h.57l.29-.15.29-.28.14-.29m1.23-2.29h1.58l-.86 1.15h.43l.28.14.15.14.14.43v.29l-.14.43-.29.28-.43.15h-.43l-.43-.15-.14-.14-.15-.28m4.67-2.44h-1.43l-.14 1.29.14-.14.43-.15h.43l.43.15.28.28.15.43v.29l-.15.43-.28.28-.43.15h-.43l-.43-.15-.14-.14-.15-.28"/><path id="rep2178" fill="none" stroke-width=".787" d="m199.041-205.452-.29.15-.29.28-.14.29v.57l.14.29.29.28.29.15.43.14h.71l.43-.14.29-.15.28-.28.15-.29v-.57l-.15-.29-.28-.28-.29-.15m-2.29-1.23v-1.57l1.15.86v-.43l.14-.29.14-.14.43-.15h.29l.43.15.28.28.15.43v.43l-.15.43-.14.15-.29.14m-2.43-4.38 2 1.43v-2.15m-2 .72h3.01"/><path id="rep2194" fill="none" stroke-width=".787" d="m190.536-205.477-.29.15-.28.28-.14.29v.57l.14.29.28.28.29.15.43.14h.72l.43-.14.28-.15.29-.28.14-.29v-.57l-.14-.29-.29-.28-.28-.15m-2.29-1.23v-1.57l1.14.86v-.43l.14-.29.15-.14.43-.15h.28l.43.15.29.28.14.43v.43l-.14.43-.14.15-.29.14m-1.86-2.95-.15-.29-.42-.43h3"/><path id="rep2210" fill="none" stroke-width=".787" d="m181.541-205.452-.29.15-.29.28-.14.29v.57l.14.29.29.28.29.15.43.14h.71l.43-.14.29-.15.28-.28.15-.29v-.57l-.15-.29-.28-.28-.29-.15m-2.29-1.23v-1.57l1.15.86v-.43l.14-.29.14-.14.43-.15h.29l.43.15.28.28.15.43v.43l-.15.43-.14.15-.29.14m-2.43-3.81.14.43.43.29.72.14h.43l.71-.14.43-.29.15-.43v-.29l-.15-.43-.43-.28-.71-.15h-.43l-.72.15-.43.28-.14.43v.29"/><path id="rep2226" fill="none" stroke-width=".787" d="m127.041-208.952-.29.15-.29.28-.14.29v.57l.14.29.29.28.29.15.43.14h.71l.43-.14.29-.15.28-.28.15-.29v-.57l-.15-.29-.28-.28-.29-.15m-1.57-1.08h-.15l-.28-.15-.15-.14-.14-.29v-.57l.14-.29.15-.14.28-.14h.29l.29.14.42.29 1.44 1.43v-2.01m-2.01-2.8.43.14.29.29.14.43v.14l-.14.43-.29.29-.43.14h-.14l-.43-.14-.29-.29-.14-.43v-.14l.14-.43.29-.29.57-.14h.72l.71.14.43.29.15.43v.28l-.15.43-.28.15"/><path id="rep2242" fill="none" stroke-width=".787" d="m122.041-208.952-.29.15-.29.28-.14.29v.57l.14.29.29.28.29.15.43.14h.71l.43-.14.29-.15.28-.28.15-.29v-.57l-.15-.29-.28-.28-.29-.15m-1.57-1.08h-.15l-.28-.15-.15-.14-.14-.29v-.57l.14-.29.15-.14.28-.14h.29l.29.14.42.29 1.44 1.43v-2.01m-3.01-1.66.14.43.29.15h.29l.28-.15.15-.28.14-.58.14-.43.29-.28.28-.15h.43l.29.15.14.14.15.43v.57l-.15.43-.14.15-.29.14h-.43l-.28-.14-.29-.29-.14-.43-.14-.57-.15-.29-.28-.14h-.29l-.29.14-.14.43v.57"/><path id="rep2284" fill="none" stroke-width=".787" d="m270.541-256.452-.29.15-.29.28-.14.29v.57l.14.29.29.28.29.15.43.14h.71l.43-.14.29-.15.28-.28.15-.29v-.57l-.15-.29-.28-.28-.29-.15m-1.57-1.08h-.15l-.28-.15-.15-.14-.14-.29v-.57l.14-.29.15-.14.28-.14h.29l.29.14.42.29 1.44 1.43v-2.01m-2.29-1.08h-.15l-.28-.15-.15-.14-.14-.29v-.57l.14-.29.15-.14.28-.14h.29l.29.14.42.29 1.44 1.43v-2.01"/><path id="rep2297" fill="none" stroke-width=".787" d="m265.036-255.977-.29.15-.28.28-.14.29v.57l.14.29.28.28.29.15.43.14h.72l.43-.14.28-.15.29-.28.14-.29v-.57l-.14-.29-.29-.28-.28-.15m-1.58-1.08h-.14l-.29-.15-.14-.14-.14-.29v-.57l.14-.29.14-.14.29-.14h.28l.29.14.43.29 1.43 1.43v-2.01m-2.43-.94-.15-.29-.42-.43h3"/><path id="rep2310" fill="none" stroke-width=".787" d="m280.71-269.46-.14-.29-.29-.29-.28-.14h-.58l-.28.14-.29.29-.14.29-.15.43v.71l.15.43.14.29.29.28.28.15h.58l.28-.15.29-.28.14-.29m.95-1.72.28-.14.43-.43v3.01m2.81-2.01-.14.43-.29.29-.43.14h-.14l-.43-.14-.29-.29-.14-.43v-.14l.14-.43.29-.29.43-.14h.14l.43.14.29.29.14.57v.72l-.14.72-.29.42-.43.15h-.29l-.43-.15-.14-.28"/><path id="rep2323" fill="none" stroke-width=".787" d="m338.034-265.215-.28.15-.29.28-.14.29v.57l.14.29.29.28.28.15.43.14h.72l.43-.14.28-.15.29-.28.14-.29v-.57l-.14-.29-.29-.28-.28-.15m-1.72-.94-.14-.29-.43-.43h3m-3-1.66.14.43.29.14h.28l.29-.14.14-.29.15-.57.14-.43.29-.28.28-.15h.43l.29.15.14.14.14.43v.57l-.14.43-.14.14-.29.15h-.43l-.28-.15-.29-.28-.14-.43-.15-.57-.14-.29-.29-.14h-.28l-.29.14-.14.43v.57"/><path id="rep2336" fill="none" stroke-width=".787" d="m329.034-265.215-.28.15-.29.28-.14.29v.57l.14.29.29.28.28.15.43.14h.72l.43-.14.28-.15.29-.28.14-.29v-.57l-.14-.29-.29-.28-.28-.15m-1.72-.94-.14-.29-.43-.43h3m-3-2.95 3 1.43m-3 .58v-2.01"/><path id="rep2349" fill="none" stroke-width=".787" d="m311.034-278.215-.28.15-.29.28-.14.29v.57l.14.29.29.28.28.15.43.14h.72l.43-.14.28-.15.29-.28.14-.29v-.57l-.14-.29-.29-.28-.28-.15m-1.72-.94-.14-.29-.43-.43h3m-3-2.66v1.43l1.29.14-.15-.14-.14-.43v-.43l.14-.43.29-.28.43-.15h.28l.43.15.29.28.14.43v.43l-.14.43-.14.14-.29.15"/><path id="rep2362" fill="none" stroke-width=".787" d="m291.71-284.96-.14-.29-.29-.29-.28-.14h-.58l-.28.14-.29.29-.14.29-.15.43v.71l.15.43.14.29.29.28.28.15h.58l.28-.15.29-.28.14-.29m.95-1.72.28-.14.43-.43v3.01m2.38-3.01-1.43 2.01h2.14m-.71-2.01v3.01"/><path id="rep2375" fill="none" stroke-width=".787" d="m278.21-296.96-.14-.29-.29-.29-.28-.14h-.58l-.28.14-.29.29-.14.29-.15.43v.71l.15.43.14.29.29.28.28.15h.58l.28-.15.29-.28.14-.29m.95-1.72.28-.14.43-.43v3.01m1.23-3.01h1.58l-.86 1.15h.43l.29.14.14.14.14.43v.29l-.14.43-.29.28-.43.15h-.43l-.43-.15-.14-.14-.14-.28"/><path id="rep2414" fill="none" stroke-width=".787" d="M266.03-366.18v3.01m0-3.01h1.29l.43.14.14.15.14.28v.29l-.14.29-.14.14-.43.14m-1.29 0h1.29l.43.15.14.14.14.29v.43l-.14.28-.14.14-.43.15h-1.29m2.95-3.01v2.15l.14.43.29.28.43.15h.28l.43-.15.29-.28.14-.43v-2.15m2.95 0-2 3.01m0-3.01h2m-2 3.01h2m2.95-3.01-2 3.01m0-3.01h2m-2 3.01h2m.95-3.01v3.01m0-3.01h1.86m-1.86 1.43h1.14m-1.14 1.58h1.86m.94-3.01v3.01m0-3.01h1.29l.43.14.14.15.15.28v.29l-.15.29-.14.14-.43.14h-1.29m1 0 1.01 1.58m.94-2.44.29-.14.43-.43v3.01"/><path id="rep2427" fill="none" stroke-width=".787" d="m285.55-241.68-1.15 3.01m1.15-3.01 1.14 3.01m-1.86-1h1.43m1.38-1.44.28-.14.43-.43v3.01"/><path id="rep2435" fill="none" stroke-width=".787" d="M117.821-217.302h3.01m-3.01 0v-1.29l.14-.43.15-.14.28-.14h.29l.29.14.14.14.14.43v1.29m0-1 1.58-1m-3.01-1.23v-1.58l1.15.86v-.43l.14-.29.14-.14.43-.14h.29l.43.14.28.29.15.43v.43l-.15.43-.14.14-.29.14m-2.43-4.38 2 1.43v-2.15m-2 .72h3.01"/><path id="rep2440" fill="none" stroke-width=".787" d="M280.3-249.68v3.01m0-3.01h1.29l.43.14.14.15.15.28v.29l-.15.29-.14.14-.43.14h-1.29m1 0 1.01 1.58m1.23-3.01h1.57l-.86 1.15h.43l.29.14.14.14.15.43v.29l-.15.43-.28.28-.43.15h-.43l-.43-.15-.15-.14-.14-.28m3.24-2.44h1.57l-.86 1.15h.43l.29.14.14.14.14.43v.29l-.14.43-.28.28-.43.15h-.43l-.43-.15-.15-.14-.14-.28"/><path id="rep2445" fill="none" stroke-width=".787" d="M175.321-262.802h3.01m-3.01 0v-1.29l.14-.43.15-.14.28-.14h.29l.29.14.14.14.14.43v1.29m0-1 1.58-1m-3.01-1.23v-1.58l1.15.86v-.43l.14-.29.14-.14.43-.14h.29l.43.14.28.29.15.43v.43l-.15.43-.14.14-.29.14m-1.71-3.09h-.15l-.28-.14-.15-.15-.14-.28v-.58l.14-.28.15-.15.28-.14h.29l.29.14.42.29 1.44 1.43v-2"/><path id="rep2450" fill="none" stroke-width=".787" d="M184.326-264.327h3m-3 0v-1.29l.14-.43.14-.14.29-.14h.28l.29.14.14.14.15.43v1.29m0-1 1.57-1m-3-1.23v-1.58l1.14.86v-.43l.14-.29.15-.14.43-.14h.28l.43.14.29.29.14.43v.43l-.14.43-.14.14-.29.14m-1.86-2.95-.15-.28-.42-.43h3"/><path id="rep2455" fill="none" stroke-width=".787" d="M179.821-262.802h3.01m-3.01 0v-1.29l.14-.43.15-.14.28-.14h.29l.29.14.14.14.14.43v1.29m0-1 1.58-1m-3.01-1.23v-1.58l1.15.86v-.43l.14-.29.14-.14.43-.14h.29l.43.14.28.29.15.43v.43l-.15.43-.14.14-.29.14m-2.43-3.81.14.43.43.29.72.14h.43l.71-.14.43-.29.15-.43v-.28l-.15-.43-.43-.29-.71-.14h-.43l-.72.14-.43.29-.14.43v.28"/><path id="rep2460" fill="none" stroke-width=".787" d="M170.321-262.802h3.01m-3.01 0v-1.29l.14-.43.15-.14.28-.14h.29l.29.14.14.14.14.43v1.29m0-1 1.58-1m-2.29-1.09h-.15l-.28-.14-.15-.15-.14-.28v-.58l.14-.28.15-.15.28-.14h.29l.29.14.42.29 1.44 1.43v-2m-2.01-2.81.43.14.29.29.14.43v.14l-.14.43-.29.29-.43.14h-.14l-.43-.14-.29-.29-.14-.43v-.14l.14-.43.29-.29.57-.14h.72l.71.14.43.29.15.43v.29l-.15.43-.28.14"/><path id="rep2465" fill="none" stroke-width=".787" d="M197.3-193.68v3.01m0-3.01h1.29l.43.14.14.15.15.28v.29l-.15.29-.14.14-.43.14h-1.29m1 0 1.01 1.58m1.08-2.29v-.15l.15-.28.14-.15.29-.14h.57l.29.14.14.15.14.28v.29l-.14.29-.29.43-1.43 1.43h2.01m1.66-3.01-.43.14-.15.29v.29l.15.28.28.15.58.14.43.14.28.29.14.29v.43l-.14.28-.14.14-.43.15h-.57l-.43-.15-.15-.14-.14-.28v-.43l.14-.29.29-.29.43-.14.57-.14.29-.15.14-.28v-.29l-.14-.29-.43-.14h-.57"/><path id="rep2470" fill="none" stroke-width=".787" d="M218.8-246.18v3.01m0-3.01h1.29l.43.14.14.15.15.28v.29l-.15.29-.14.14-.43.14h-1.29m1 0 1.01 1.58m1.08-2.29v-.15l.15-.28.14-.15.29-.14h.57l.29.14.14.15.14.28v.29l-.14.29-.29.43-1.43 1.43h2.01m2.66-2.58-.14-.29-.43-.14h-.29l-.43.14-.29.43-.14.72v.72l.14.57.29.28.43.15h.14l.43-.15.29-.28.14-.43v-.14l-.14-.43-.29-.29-.43-.14h-.14l-.43.14-.29.29-.14.43"/><path id="rep2475" fill="none" stroke-width=".787" d="M218.8-240.68v3.01m0-3.01h1.29l.43.14.14.15.15.28v.29l-.15.29-.14.14-.43.14h-1.29m1 0 1.01 1.58m1.08-2.29v-.15l.15-.28.14-.15.29-.14h.57l.29.14.14.15.14.28v.29l-.14.29-.29.43-1.43 1.43h2.01m2.66-3.01h-1.43l-.15 1.29.15-.14.43-.15h.43l.43.15.28.28.14.43v.29l-.14.43-.28.28-.43.15h-.43l-.43-.15-.15-.14-.14-.28"/><path id="rep2480" fill="none" stroke-width=".787" d="M152.821-224.802h3.01m-3.01 0v-1.29l.14-.43.15-.14.28-.14h.29l.29.14.14.14.14.43v1.29m0-1 1.58-1m-2.29-1.09h-.15l-.28-.14-.15-.15-.14-.28v-.58l.14-.28.15-.15.28-.14h.29l.29.14.42.29 1.44 1.43v-2m-3.01-1.23v-1.58l1.15.86v-.43l.14-.29.14-.14.43-.14h.29l.43.14.28.29.15.43v.43l-.15.43-.14.14-.29.14"/><path id="rep2485" fill="none" stroke-width=".787" d="M126.821-217.302h3.01m-3.01 0v-1.29l.14-.43.15-.14.28-.14h.29l.29.14.14.14.14.43v1.29m0-1 1.58-1m-2.29-1.09h-.15l-.28-.14-.15-.15-.14-.28v-.58l.14-.28.15-.15.28-.14h.29l.29.14.42.29 1.44 1.43v-2m-2.29-1.09h-.15l-.28-.14-.15-.15-.14-.28v-.58l.14-.28.15-.15.28-.14h.29l.29.14.42.29 1.44 1.43v-2"/><path id="rep2490" fill="none" stroke-width=".787" d="M122.326-218.327h3m-3 0v-1.29l.14-.43.14-.14.29-.14h.28l.29.14.14.14.15.43v1.29m0-1 1.57-1m-2.29-1.09h-.14l-.29-.14-.14-.15-.14-.28v-.58l.14-.28.14-.15.29-.14h.28l.29.14.43.29 1.43 1.43v-2m-2.43-.95-.15-.28-.42-.43h3"/><path id="rep2495" fill="none" stroke-width=".787" d="M157.821-224.802h3.01m-3.01 0v-1.29l.14-.43.15-.14.28-.14h.29l.29.14.14.14.14.43v1.29m0-1 1.58-1m-2.29-1.09h-.15l-.28-.14-.15-.15-.14-.28v-.58l.14-.28.15-.15.28-.14h.29l.29.14.42.29 1.44 1.43v-2m-3.01-1.81.14.43.43.29.72.14h.43l.71-.14.43-.29.15-.43v-.28l-.15-.43-.43-.29-.71-.14h-.43l-.72.14-.43.29-.14.43v.28"/><path id="rep2500" fill="none" stroke-width=".787" d="M147.824-225.065h3m-3 0v-1.29l.14-.43.14-.14.29-.14h.29l.28.14.15.14.14.43v1.29m0-1 1.57-1m-2.43-.95-.14-.28-.43-.43h3m-2-2.81.43.14.29.29.14.43v.14l-.14.43-.29.29-.43.14h-.14l-.43-.14-.29-.29-.14-.43v-.14l.14-.43.29-.29.57-.14h.72l.71.14.43.29.14.43v.28l-.14.43-.29.15"/><path id="rep2505" fill="none" stroke-width=".787" d="M142.824-226.565h3m-3 0v-1.29l.14-.43.14-.14.29-.14h.29l.28.14.15.14.14.43v1.29m0-1 1.57-1m-2.43-.95-.14-.28-.43-.43h3m-3-1.67.14.43.29.15h.28l.29-.15.14-.28.15-.57.14-.43.29-.29.28-.14h.43l.29.14.14.14.14.43v.57l-.14.43-.14.15-.29.14h-.43l-.28-.14-.29-.29-.14-.43-.15-.57-.14-.29-.29-.14h-.28l-.29.14-.14.43v.57"/><path id="rep2510" fill="none" stroke-width=".787" d="M163.824-225.065h3m-3 0v-1.29l.14-.43.14-.14.29-.14h.29l.28.14.15.14.14.43v1.29m0-1 1.57-1m-2.43-.95-.14-.28-.43-.43h3m-3-2.95 3 1.43m-3 .57v-2"/><path id="rep2515" fill="none" stroke-width=".787" d="M199.824-225.565h3m-3 0v-1.29l.14-.43.14-.14.29-.14h.29l.28.14.15.14.14.43v1.29m0-1 1.57-1m-2.43-.95-.14-.28-.43-.43h3m-2.57-2.67-.29.15-.14.43v.28l.14.43.43.29.72.14h.71l.57-.14.29-.29.14-.43v-.14l-.14-.43-.29-.29-.43-.14h-.14l-.43.14-.28.29-.15.43v.14l.15.43.28.29.43.14"/><path id="rep2520" fill="none" stroke-width=".787" d="M187.824-229.565h3m-3 0v-1.29l.14-.43.14-.14.29-.14h.29l.28.14.15.14.14.43v1.29m0-1 1.57-1m-2.43-.95-.14-.28-.43-.43h3m-3-2.67v1.43l1.29.15-.15-.15-.14-.43v-.42l.14-.43.29-.29.43-.14h.28l.43.14.29.29.14.43v.42l-.14.43-.14.15-.29.14"/><path id="rep2525" fill="none" stroke-width=".787" d="M253.06-342.68v3.01m0-3.01h1.29l.43.14.15.15.14.28v.29l-.14.29-.15.14-.43.14h-1.29m1.01 0 1 1.58m.94-2.44.29-.14.43-.43v3.01m2.38-3.01-1.44 2.01h2.15m-.71-2.01v3.01"/><path id="rep2530" fill="none" stroke-width=".787" d="M239.826-304.377h3m-3 0v-1.29l.14-.43.14-.14.29-.14h.28l.29.14.14.14.15.43v1.29m0-1 1.57-1m-2.57-2.67-.29.15-.14.43v.28l.14.43.43.29.71.14h.72l.57-.14.29-.29.14-.43v-.14l-.14-.43-.29-.29-.43-.14h-.14l-.43.14-.29.29-.14.43v.14l.14.43.29.29.43.14"/><path id="rep2535" fill="none" stroke-width=".787" d="M236.603-329.378h3.01m-3.01 0v-1.29l.14-.43.15-.14.28-.15h.29l.29.15.14.14.14.43v1.29m0-1 1.58-1.01m-2.44-.94-.14-.29-.43-.43h3.01m-3.01-1.23v-1.57l1.15.86v-.43l.14-.29.14-.14.43-.15h.29l.43.15.28.28.15.43v.43l-.15.43-.14.14-.28.15"/><path id="rep2540" fill="none" stroke-width=".787" d="M298.59-246.18v3.01m0-3.01h1.29l.43.14.14.15.14.28v.29l-.14.29-.14.14-.43.14h-1.29m1 0 1 1.58m.95-2.44.28-.14.43-.43v3.01m.95-2.44.29-.14.42-.43v3.01"/><path id="rep2545" fill="none" stroke-width=".787" d="M253.177-258.624h-3m3 0v1.29l-.14.43-.14.14-.29.14h-.29l-.28-.14-.15-.14-.14-.43v-1.29m0 1-1.57 1m3 2.67v-1.43l-1.29-.15.15.15.14.43v.43l-.14.42-.29.29-.43.14h-.29l-.42-.14-.29-.29-.14-.42v-.43l.14-.43.14-.15.29-.14"/><path id="rep2550" fill="none" stroke-width=".787" d="M258.177-258.624h-3m3 0v1.29l-.14.43-.14.14-.29.14h-.29l-.28-.14-.15-.14-.14-.43v-1.29m0 1-1.57 1m3 2.38-2-1.43v2.15m2-.72h-3"/><path id="rep2555" fill="none" stroke-width=".787" d="M262.677-258.624h-3m3 0v1.29l-.14.43-.14.14-.29.14h-.29l-.28-.14-.15-.14-.14-.43v-1.29m0 1-1.57 1m3 1.24v1.57l-1.14-.86v.43l-.15.29-.14.14-.43.14h-.29l-.42-.14-.29-.29-.14-.42v-.43l.14-.43.14-.15.29-.14"/><path id="rep2560" fill="none" stroke-width=".787" d="M298.56-239.68v3.01m0-3.01h1.29l.43.14.15.15.14.28v.29l-.14.29-.15.14-.43.14h-1.29m1.01 0 1 1.58m.94-2.44.29-.14.43-.43v3.01m1.8-3.01-.43.14-.28.43-.15.72v.43l.15.72.28.42.43.15h.29l.43-.15.29-.42.14-.72v-.43l-.14-.72-.29-.43-.43-.14h-.29"/><path id="rep2565" fill="none" stroke-width=".787" d="M248.177-258.624h-3m3 0v1.29l-.14.43-.14.14-.29.14h-.29l-.28-.14-.15-.14-.14-.43v-1.29m0 1-1.57 1m2.29 1.09h.14l.29.15.14.14.14.29v.57l-.14.28-.14.15-.29.14h-.29l-.28-.14-.43-.29-1.43-1.43v2"/><path id="rep2570" fill="none" stroke-width=".787" d="M235.32-305.901h3.01m-3.01 0v-1.29l.14-.43.15-.14.28-.14h.29l.29.14.14.14.14.43v1.29m0-1 1.58-1m-2.44-.95-.14-.28-.43-.43h3.01"/><path id="rep2575" fill="none" stroke-width=".787" d="M279.88-212.45v3.01m0-3.01h1.28l.43.15.15.14.14.29v.43l-.14.28-.15.15-.43.14h-1.28m3.09-.86v-.14l.14-.29.14-.14.29-.15h.57l.29.15.14.14.15.29v.28l-.15.29-.28.43-1.43 1.43h2"/><path id="rep2581" fill="none" stroke-width=".787" d="M310.9-261.18v3.01m0-3.01h1.29l.43.14.14.15.15.28v.43l-.15.29-.14.14-.43.15h-1.29m2.95-1.01.29-.14.43-.43v3.01"/><path id="rep2587" fill="none" stroke-width=".787" d="M142.326-218.377h3m-3 0v-1l.14-.43.29-.29.28-.14.43-.14h.72l.43.14.28.14.29.29.14.43v1m-3-3.23v-1.58l1.14.86v-.43l.14-.29.15-.14.43-.14h.28l.43.14.29.29.14.43v.43l-.14.43-.14.14-.29.14"/><path id="rep2592" fill="none" stroke-width=".787" d="m265.45-242.96-.14-.29-.29-.29-.29-.14h-.57l-.29.14-.28.29-.14.29-.15.43v.71l.15.43.14.29.28.28.29.15h.57l.29-.15.29-.28.14-.29m2.38-2.29-1.44 2.01h2.15m-.71-2.01v3.01m3.37-3.01h-1.43l-.14 1.29.14-.14.43-.15h.43l.43.15.29.28.14.43v.29l-.14.43-.29.28-.43.15h-.43l-.43-.15-.14-.14-.14-.28"/><path id="rep2597" fill="none" stroke-width=".787" d="m304.71-286.46-.14-.29-.29-.29-.28-.14h-.58l-.28.14-.29.29-.14.29-.15.43v.71l.15.43.14.29.29.28.28.15h.58l.28-.15.29-.28.14-.29m.95-1.72.28-.14.43-.43v3.01m1.09-2.29v-.15l.14-.28.15-.15.28-.14h.58l.28.14.15.15.14.28v.29l-.14.29-.29.43-1.43 1.43h2"/><path id="rep2602" fill="none" stroke-width=".787" d="m219.462-279.049.29-.15.28-.28.15-.29v-.57l-.15-.29-.28-.28-.29-.15-.43-.14h-.71l-.43.14-.29.15-.29.28-.14.29v.57l.14.29.29.28.29.15m1.57 1.09h.14l.29.14.14.14.15.29v.57l-.15.29-.14.14-.29.14h-.28l-.29-.14-.43-.29-1.43-1.43v2.01m3.01 2.66v-1.43l-1.29-.14.14.14.14.43v.43l-.14.43-.29.28-.42.15h-.29l-.43-.15-.29-.28-.14-.43v-.43l.14-.43.15-.14.28-.15"/><path id="rep2607" fill="none" stroke-width=".787" d="m256.95-185.96-.14-.29-.29-.29-.29-.14h-.57l-.29.14-.28.29-.14.29-.15.43v.71l.15.43.14.29.28.28.29.15h.57l.29-.15.29-.28.14-.29m2.38-2.29-1.44 2.01h2.15m-.71-2.01v3.01m1.8-2.29v-.15l.14-.28.15-.15.28-.14h.58l.28.14.14.15.15.28v.29l-.15.29-.28.43-1.43 1.43h2"/><path id="rep2612" fill="none" stroke-width=".787" d="m275.97-187.96-.14-.29-.29-.29-.28-.14h-.57l-.29.14-.29.29-.14.29-.14.43v.71l.14.43.14.29.29.28.29.15h.57l.28-.15.29-.28.14-.29m2.38-2.29-1.43 2.01h2.15m-.72-2.01v3.01m1.66-2.44.29-.14.43-.43v3.01"/><path id="rep2617" fill="none" stroke-width=".787" d="m253.541-206.952-.29.15-.29.28-.14.29v.57l.14.29.29.28.29.15.43.14h.71l.43-.14.29-.15.28-.28.15-.29v-.57l-.15-.29-.28-.28-.29-.15m-2.29-1.23v-1.57l1.15.86v-.43l.14-.29.14-.14.43-.15h.29l.43.15.28.28.15.43v.43l-.15.43-.14.15-.29.14m-2-4.67-.29.14-.14.43v.29l.14.43.43.29.72.14h.71l.58-.14.28-.29.15-.43v-.14l-.15-.43-.28-.29-.43-.14h-.15l-.43.14-.28.29-.14.43v.14l.14.43.28.29.43.14"/><path id="rep2622" fill="none" stroke-width=".787" d="m195.041-227.452-.29.15-.29.28-.14.29v.57l.14.29.29.28.29.15.43.14h.71l.43-.14.29-.15.28-.28.15-.29v-.57l-.15-.29-.28-.28-.29-.15m-2.29-1.23v-1.57l1.15.86v-.43l.14-.29.14-.14.43-.15h.29l.43.15.28.28.15.43v.43l-.15.43-.14.15-.29.14m-2.43-3.24v-1.57l1.15.86v-.43l.14-.29.14-.14.43-.15h.29l.43.15.28.28.15.43v.43l-.15.43-.14.15-.29.14"/><path id="rep2627" fill="none" stroke-width=".787" d="m242.541-331.452-.29.15-.29.28-.14.29v.57l.14.29.29.28.29.15.43.14h.71l.43-.14.29-.15.28-.28.15-.29v-.57l-.15-.29-.28-.28-.29-.15m-2.29-1.23v-1.57l1.15.86v-.43l.14-.29.14-.14.43-.15h.29l.43.15.28.28.15.43v.43l-.15.43-.14.15-.29.14m-1.71-3.09h-.15l-.28-.15-.15-.14-.14-.29v-.57l.14-.29.15-.14.28-.14h.29l.29.14.42.29 1.44 1.43v-2.01"/><path id="rep2632" fill="none" stroke-width=".787" d="m232.462-262.049.29-.15.28-.28.15-.29v-.57l-.15-.29-.28-.28-.29-.15-.43-.14h-.71l-.43.14-.29.15-.29.28-.14.29v.57l.14.29.29.28.29.15m1.57 1.09h.14l.29.14.14.14.15.29v.57l-.15.29-.14.14-.29.14h-.28l-.29-.14-.43-.29-1.43-1.43v2.01m3.01 2.37-2.01-1.43v2.15m2.01-.72h-3.01"/><path id="rep2637" fill="none" stroke-width=".787" d="m236.962-259.549.29-.15.28-.28.15-.29v-.57l-.15-.29-.28-.28-.29-.15-.43-.14h-.71l-.43.14-.29.15-.29.28-.14.29v.57l.14.29.29.28.29.15m1.57 1.09h.14l.29.14.14.14.15.29v.57l-.15.29-.14.14-.29.14h-.28l-.29-.14-.43-.29-1.43-1.43v2.01m3.01 1.23v1.57l-1.15-.86v.43l-.14.29-.15.14-.42.15h-.29l-.43-.15-.29-.28-.14-.43v-.43l.14-.43.15-.14.28-.15"/><path id="rep2642" fill="none" stroke-width=".787" d="m300.45-233.96-.14-.29-.29-.29-.29-.14h-.57l-.29.14-.28.29-.14.29-.15.43v.71l.15.43.14.29.28.28.29.15h.57l.29-.15.29-.28.14-.29m1.09-1.57v-.15l.14-.28.14-.15.29-.14h.57l.29.14.14.15.15.28v.29l-.15.29-.28.43-1.44 1.43h2.01m1.8-3.01-.43.14-.28.43-.15.72v.43l.15.72.28.42.43.15h.29l.43-.15.28-.42.15-.72v-.43l-.15-.72-.28-.43-.43-.14h-.29"/><path id="rep2647" fill="none" stroke-width=".787" d="m242.96-258.761.29-.15.29-.28.14-.29v-.57l-.14-.29-.29-.28-.29-.15-.43-.14h-.71l-.43.14-.29.15-.28.28-.15.29v.57l.15.29.28.28.29.15m1.72.94.14.29.43.43h-3.01m2.44.94.14.29.43.43h-3.01"/><path id="rep2652" fill="none" stroke-width=".787" d="m281.034-251.715-.28.15-.29.28-.14.29v.57l.14.29.29.28.28.15.43.14h.72l.43-.14.28-.15.29-.28.14-.29v-.57l-.14-.29-.29-.28-.28-.15m-1.72-.94-.14-.29-.43-.43h3m-2.57-2.66-.29.14-.14.43v.29l.14.43.43.28.72.15h.71l.57-.15.29-.28.14-.43v-.14l-.14-.43-.29-.29-.43-.14h-.14l-.43.14-.28.29-.15.43v.14l.15.43.28.28.43.15"/><path id="rep2657" fill="none" stroke-width=".787" d="m264.536-305.527-.28.15-.29.28-.14.29v.57l.14.29.29.28.28.15.43.14h.72l.43-.14.28-.15.29-.28.14-.29v-.57l-.14-.29-.29-.28-.28-.15m-2.29-2.37 2 1.43v-2.15m-2 .72h3"/><path id="rep2662" fill="none" stroke-width=".787" d="m274.036-305.527-.28.15-.29.28-.14.29v.57l.14.29.29.28.28.15.43.14h.72l.43-.14.28-.15.29-.28.14-.29v-.57l-.14-.29-.29-.28-.28-.15m-2.29-1.23v-1.57l1.14.86v-.43l.14-.29.15-.14.43-.15h.28l.43.15.29.28.14.43v.43l-.14.43-.14.15-.29.14"/><path id="rep2667" fill="none" stroke-width=".787" d="m269.536-305.527-.28.15-.29.28-.14.29v.57l.14.29.29.28.28.15.43.14h.72l.43-.14.28-.15.29-.28.14-.29v-.57l-.14-.29-.29-.28-.28-.15m-2.29-2.66v1.43l1.28.15-.14-.15-.14-.43v-.43l.14-.43.29-.28.43-.15h.28l.43.15.29.28.14.43v.43l-.14.43-.14.15-.29.14"/><path id="rep2672" fill="none" stroke-width=".787" d="m260.036-305.527-.28.15-.29.28-.14.29v.57l.14.29.29.28.28.15.43.14h.72l.43-.14.28-.15.29-.28.14-.29v-.57l-.14-.29-.29-.28-.28-.15m-1.58-1.08h-.14l-.29-.15-.14-.14-.14-.29v-.57l.14-.29.14-.14.29-.14h.28l.29.14.43.29 1.43 1.43v-2.01"/><path id="rep2677" fill="none" stroke-width=".787" d="m260.55-326.96-.14-.29-.29-.29-.29-.14h-.57l-.29.14-.28.29-.15.29-.14.43v.71l.14.43.15.29.28.28.29.15h.57l.29-.15.29-.28.14-.29m.94-1.72.29-.14.43-.43v3.01"/><path id="rep1231" fill="none" stroke-width=".984" d="M177.984-219.22a.492.492 0 1 0 0 .021"/><path id="rep1271" fill="none" stroke-width="1" d="M202.768-269.319a9.823 9.823 0 0 0-8.637 17.17"/><path id="rep1272" fill="none" stroke-width="1" d="M209.768-257.319a9.823 9.823 0 0 0 .214-3.957"/><path id="rep1387" fill="none" stroke-width="1" d="M241.8-247.406a2.85 2.85 0 0 0 5.7 0"/><path id="rep1388" fill="none" stroke-width="1.181" d="M234.4-248.34a.59.59 0 1 0 0 .016"/><path id="rep1406" fill="none" stroke-width=".591" d="M265.535-200.032a.295.295 0 1 0-.001.026"/><path id="rep1419" fill="none" stroke-width=".984" d="M207.252-230.323a.492.492 0 1 0 0 .022"/><path id="rep1448" fill="none" stroke-width="1" d="M141-265.5a.5.5 0 1 0-.001.023"/><path id="rep1605" fill="none" stroke-width=".394" d="M283.824-273.892a.268.268 0 1 0-.001.024"/><path id="rep1618" fill="none" stroke-width=".787" d="M266.524-300.567a.787.787 0 1 0 0 .017"/><path id="rep1765" fill="none" stroke-width=".591" d="M304.53-276.49a.276.276 0 1 0 0 .025"/><path id="rep1780" fill="none" stroke-width=".984" d="M173.992-261.327a.492.492 0 1 0 0 .022"/><path id="rep1801" fill="none" stroke-width=".984" d="M176.055-244.587a.492.492 0 1 0 0 .022"/><path id="rep1822" fill="none" stroke-width=".984" d="M243.146-347a.492.492 0 1 0 0 .022"/><path id="rep2416" fill="none" stroke-width="1" d="M286.452-340a2.953 2.953 0 1 0 0 .015"/><path id="rep2417" fill="none" stroke-width="1" d="M301.608-340a18.11 18.11 0 1 0 0 .019"/><path id="rep1994" stroke-width="0" d="M265.35-253.16v1.664h-1.2v-1.663h1.2"/><path id="rep1995" stroke-width="0" d="M265.35-246.84v-1.664h-1.2v1.663h1.2"/><path id="rep2015" stroke-width="0" d="M226.16-255.15h-1.664v-1.2h1.663v1.2"/><path id="rep2016" stroke-width="0" d="M219.84-255.15h1.664v-1.2h-1.663v1.2"/><path id="rep2034" stroke-width="0" d="m141-223 1.1.9h-2.2l1.1-.9"/><path id="rep2035" stroke-width="0" d="m141-223-1.1-.9h2.2l-1.1.9"/><path id="rep2050" stroke-width="0" d="m141-240-1.1-.9h2.2l-1.1.9"/><path id="rep2051" stroke-width="0" d="m141-240 1.1.9h-2.2l1.1-.9"/><path id="rep2066" stroke-width="0" d="m135.5-240-1.1-.9h2.2l-1.1.9"/><path id="rep2067" stroke-width="0" d="m135.5-240 1.1.9h-2.2l1.1-.9"/><path id="rep2084" stroke-width="0" d="M284.85-264.66v1.664h-1.2v-1.663h1.2"/><path id="rep2085" stroke-width="0" d="M284.85-258.34v-1.664h-1.2v1.663h1.2"/><path id="rep1125" fill="none" stroke-linecap="round" stroke-width="1" d="M119.847-387.97H473.66"/><path id="rep1126" fill="none" stroke-linecap="round" stroke-width="1" d="M493.225-180.206v-187.957"/><path id="rep1127" fill="none" stroke-linecap="round" stroke-width="1" d="M119.646-160.506h353.879"/><path id="rep1128" fill="none" stroke-linecap="round" stroke-width="1" d="M100.092-180.321v-188.033"/><path id="rep1673" fill="none" stroke-linecap="round" stroke-width="1" d="M269.28-299.78h-27.56v27.56h27.56v-27.56"/><path id="rep31" fill="none" stroke-width="1" d="M99.961-180.191a19.685 19.685 0 0 0 19.685 19.685"/><path id="rep32" fill="none" stroke-width="1" d="M473.54-160.52a19.685 19.685 0 0 0 19.685-19.686"/><path id="rep33" fill="none" stroke-width="1" d="M493.346-368.284a19.685 19.685 0 0 0-19.685-19.685"/><path id="rep34" fill="none" stroke-width="1" d="M119.777-388.04a19.685 19.685 0 0 0-19.685 19.686"/><path id="rep35" fill="none" stroke-width="1" d="M132.396-368.575a6.3 6.3 0 1 0 0 .016"/><path id="rep36" fill="none" stroke-width="1" d="M132.46-180.143a6.3 6.3 0 1 0 0 .016"/><path id="rep37" fill="none" stroke-width="1" d="M472.93-179.954a6.3 6.3 0 1 0 0 .015"/><path id="rep38" fill="none" stroke-width="1" d="M473.73-367.866a6.3 6.3 0 1 0 0 .015"/></svg>