<svg xmlns="http://www.w3.org/2000/svg" width="396.866" height="237.6" viewBox="4011.8 3321.2 413.4 247.5"><style>[layerid=&quot;1&quot;]{stroke:red;fill:red}[layerid=&quot;2&quot;]{stroke:#00f;fill:#00f}[layerid=&quot;3&quot;]{stroke:#fc0;fill:#fc0}[layerid=&quot;4&quot;]{stroke:#6c3;fill:#6c3}[layerid=&quot;5&quot;]{stroke:gray;fill:gray}[layerid=&quot;6&quot;]{stroke:maroon;fill:maroon}[layerid=&quot;7&quot;],[layerid=&quot;8&quot;]{stroke:purple;fill:purple;stroke-opacity:.7;fill-opacity:.7}[layerid=&quot;8&quot;]{stroke:#a0f;fill:#a0f}[layerid=&quot;9&quot;]{stroke:#6464ff;fill:#6464ff}[layerid=&quot;10&quot;]{stroke:#f0f;fill:#f0f}[layerid=&quot;11&quot;]{stroke:silver;fill:silver}[layerid=&quot;12&quot;]{stroke:#fff;fill:#fff}[layerid=&quot;13&quot;]{stroke:#3c9;fill:#3c9}[layerid=&quot;14&quot;]{stroke:#55f;fill:#55f}[layerid=&quot;15&quot;]{stroke:#f022f0;fill:#f022f0}[layerid=&quot;19&quot;]{stroke:#6cf;fill:#6cf}[layerid=&quot;21&quot;]{stroke:#996;fill:#996}[layerid=&quot;22&quot;]{stroke:green;fill:green}[layerid=&quot;23&quot;]{stroke:#0f0;fill:#0f0}[layerid=&quot;24&quot;]{stroke:#bc8e00;fill:#bc8e00}[layerid=&quot;25&quot;]{stroke:#70dbfa;fill:#70dbfa}[layerid=&quot;26&quot;]{stroke:#0c6;fill:#0c6}[layerid=&quot;27&quot;]{stroke:#96f;fill:#96f}[layerid=&quot;28&quot;]{stroke:purple;fill:purple}[layerid=&quot;29&quot;]{stroke:teal;fill:teal}[layerid=&quot;30&quot;]{stroke:#15935f;fill:#15935f}[layerid=&quot;31&quot;]{stroke:navy;fill:navy}[layerid=&quot;32&quot;]{stroke:#00b400;fill:#00b400}[layerid=&quot;33&quot;]{stroke:#2e4756;fill:#2e4756}[layerid=&quot;34&quot;]{stroke:#99842f;fill:#99842f}[layerid=&quot;35&quot;]{stroke:#ffa;fill:#ffa}[layerid=&quot;36&quot;]{stroke:#99842f;fill:#99842f}[layerid=&quot;37&quot;]{stroke:#2e4756;fill:#2e4756}[layerid=&quot;38&quot;]{stroke:#3535ff;fill:#3535ff}[layerid=&quot;39&quot;]{stroke:#8000bc;fill:#8000bc}[layerid=&quot;40&quot;]{stroke:#43ae5f;fill:#43ae5f}[layerid=&quot;41&quot;]{stroke:#c3ecce;fill:#c3ecce}[layerid=&quot;42&quot;]{stroke:#728978;fill:#728978}[layerid=&quot;43&quot;]{stroke:#39503f;fill:#39503f}[layerid=&quot;44&quot;]{stroke:#0c715d;fill:#0c715d}[layerid=&quot;45&quot;]{stroke:#5a8a80;fill:#5a8a80}[layerid=&quot;46&quot;]{stroke:#2b937e;fill:#2b937e}[layerid=&quot;47&quot;]{stroke:#23999d;fill:#23999d}[layerid=&quot;48&quot;]{stroke:#45b4e3;fill:#45b4e3}[layerid=&quot;49&quot;]{stroke:#215da1;fill:#215da1}[layerid=&quot;50&quot;]{stroke:#4564d7;fill:#4564d7}[layerid=&quot;51&quot;]{stroke:#6969e9;fill:#6969e9}[layerid=&quot;52&quot;]{stroke:#9069e9;fill:#9069e9}[layerid=&quot;99&quot;]{stroke:#0cc;fill:#0cc;stroke-opacity:.6;fill-opacity:.6}[layerid=&quot;100&quot;]{stroke:#c99;fill:#c99}[layerid=&quot;101&quot;]{stroke:#6fc;fill:#6fc}[layerid=Hole]{stroke:#222;fill:#222}[layerid=DRCError]{stroke:#fad609;fill:#fad609}[fill=none]{fill:none}path{stroke-linecap:round;stroke-linejoin:round;shape-rendering:crispEdges}</style><path d="M4011.8 3321.2h413.4v247.5h-413.4z" style="stroke:none;shape-rendering:crispEdges"/><path id="gge503" fill="none" stroke-width="1.968" d="M4213.5 3507.095v13.153m0-13.153 8.769 13.153m0-13.153v13.153m11.65-8.768v8.768m0-6.89-1.253-1.252-1.253-.626h-1.879l-1.252.626-1.253 1.253-.626 1.879v1.252l.626 1.88 1.253 1.252 1.252.626h1.88l1.252-.626 1.253-1.253m4.134-6.89v8.77m0-6.264 1.879-1.879 1.252-.626h1.88l1.252.626.626 1.879v6.263m7.266-8.768-1.253.626-1.252 1.253-.627 1.879v1.252l.627 1.88 1.252 1.252 1.253.626h1.879l1.253-.626 1.252-1.253.627-1.879v-1.252l-.627-1.88-1.252-1.252-1.253-.626h-1.88m18.791-4.385v13.153m0-13.153h8.143m-8.143 6.264h5.01m-5.01 6.89h8.143m11.65-13.154v13.153m0-6.89-1.253-1.252-1.253-.626h-1.879l-1.253.626-1.252 1.253-.627 1.879v1.252l.627 1.88 1.252 1.252 1.253.626h1.88l1.252-.626 1.253-1.253m4.133-11.274.627.627.626-.627-.626-.626-.627.626m.627 4.385v8.768m6.639-13.153v10.648l.626 1.88 1.253.625h1.253m-5.011-8.768h4.384m4.76-4.385.627.627.626-.627-.626-.626-.627.626m.627 4.385v8.768m7.892-8.768-1.253.626-1.253 1.253-.626 1.879v1.252l.626 1.88 1.253 1.252 1.253.626h1.879l1.252-.626 1.253-1.253.626-1.879v-1.252l-.626-1.88-1.253-1.252-1.252-.626h-1.88m9.145 0v8.768m0-6.263 1.88-1.879 1.252-.626h1.879l1.253.626.626 1.879v6.263m23.175-10.021-.627-1.253-1.252-1.252-1.253-.627h-2.506l-1.252.627-1.253 1.252-.626 1.253-.626 1.879v3.132l.626 1.879.626 1.252 1.253 1.253 1.253.626h2.505l1.253-.626 1.252-1.253.627-1.252v-1.88m-3.132 0h3.132m4.133-5.636 1.253-.627 1.88-1.879v13.153"/><path id="gge485" fill="none" stroke-width="1.968" d="M4169.5 3483.595v13.153m0-13.153 5.01 13.153m5.011-13.153-5.01 13.153m5.01-13.153v13.153m4.134-5.01h7.516v-1.253l-.626-1.253-.626-.626-1.253-.626h-1.879l-1.253.626-1.252 1.253-.627 1.879v1.252l.627 1.88 1.252 1.252 1.253.626h1.88l1.252-.626 1.252-1.253m11.024-5.01-.626-1.253-1.88-.626h-1.878l-1.88.626-.626 1.253.627 1.252 1.252.627 3.132.626 1.253.626.626 1.253v.626l-.626 1.253-1.88.626h-1.878l-1.88-.626-.626-1.253m11.024-11.274v13.153m0-6.263 1.879-1.88 1.253-.625h1.879l1.252.626.627 1.879v6.263m6.013-13.153v10.648l.626 1.879 1.253.626h1.252m-5.01-8.768h4.384m12.276 0v8.768m0-6.89-1.252-1.252-1.253-.626h-1.88l-1.252.626-1.253 1.253-.626 1.879v1.252l.626 1.88 1.253 1.252 1.253.626h1.879l1.253-.626 1.252-1.253m11.024-5.01-.627-1.253-1.878-.626h-1.88l-1.879.626-.626 1.253.626 1.252 1.253.627 3.132.626 1.252.626.627 1.253v.626l-.627 1.253-1.878.626h-1.88l-1.879-.626-.626-1.253m12.903-11.274v10.648l.626 1.879 1.253.626h1.252m-5.01-8.768h4.384m4.76-4.385.627.627.626-.627-.626-.626-.627.626m.627 4.385v8.768m12.276-6.89-1.253-1.252-1.252-.626h-1.88l-1.252.626-1.253 1.253-.626 1.879v1.252l.626 1.88 1.253 1.252 1.253.626h1.879l1.252-.626 1.253-1.253m13.78-11.274v13.153m0-13.153 5.01 13.153m5.011-13.153-5.01 13.153m5.01-13.153v13.153m4.134-5.01h7.516v-1.253l-.626-1.253-.627-.626-1.252-.626h-1.88l-1.252.626-1.253 1.253-.626 1.879v1.252l.626 1.88 1.253 1.252 1.252.626h1.88l1.252-.626 1.253-1.253m11.024-5.01-.627-1.253-1.879-.626h-1.879l-1.879.626-.626 1.253.626 1.252 1.253.627 3.132.626 1.252.626.627 1.253v.626l-.627 1.253-1.879.626h-1.879l-1.879-.626-.626-1.253m11.023-11.274v13.153m0-6.263 1.88-1.88 1.252-.625h1.88l1.252.626.626 1.879v6.263m13.78-13.153v13.153m0-13.153h4.384l1.88.627 1.252 1.252.626 1.253.627 1.879v3.132l-.627 1.879-.626 1.252-1.253 1.253-1.879.626h-4.384m12.902-5.01h7.516v-1.253l-.626-1.253-.626-.626-1.253-.626h-1.879l-1.253.626-1.252 1.253-.627 1.879v1.252l.627 1.88 1.252 1.252 1.253.626h1.88l1.252-.626 1.252-1.253m4.134-6.89 3.758 8.77m3.758-8.77-3.758 8.77m7.892-13.154.627.627.626-.627-.626-.626-.627.626m.627 4.385v8.768m12.276-6.89-1.253-1.252-1.252-.626h-1.88l-1.252.626-1.253 1.253-.626 1.879v1.252l.626 1.88 1.253 1.252 1.253.626h1.879l1.252-.626 1.253-1.253m4.134-3.131h7.516v-1.253l-.626-1.253-.627-.626-1.252-.626h-1.88l-1.252.626-1.253 1.253-.626 1.879v1.252l.626 1.88 1.253 1.252 1.253.626h1.878l1.253-.626 1.253-1.253"/><path id="gge452" stroke-width="0" d="M4382.758 3350.698a6.3 6.3 0 1 1 12.599 0 6.3 6.3 0 1 1-12.599 0Z"/><path id="gge455" stroke-width="0" d="M4054.022 3351.406a6.3 6.3 0 1 1-12.599 0 6.3 6.3 0 1 1 12.599 0Z"/><path id="gge458" stroke-width="0" d="M4395.292 3539.13a6.3 6.3 0 1 1-12.599 0 6.3 6.3 0 1 1 12.599 0Z"/><path id="gge461" stroke-width="0" d="M4054.822 3539.318a6.3 6.3 0 1 1-12.598 0 6.3 6.3 0 1 1 12.598 0Z"/><path id="gge464" stroke-width="0" d="M4288.378 3372.273a4.724 4.724 0 1 1-9.449 0 4.724 4.724 0 1 1 9.449 0Z"/><path id="gge467" stroke-width="0" d="M4345.154 3460.773h-121.5v-66h121.5Z"/><path id="gge118" fill="none" stroke-linecap="round" stroke-width="1" d="M4395.307 3331.303h-353.814"/><path id="gge103" fill="none" stroke-linecap="round" stroke-width="1" d="M4021.929 3539.067V3351.11"/><path id="gge88" fill="none" stroke-linecap="round" stroke-width="1" d="M4395.507 3558.767H4041.63"/><path id="gge73" fill="none" stroke-linecap="round" stroke-width="1" d="M4415.062 3538.951v-188.033"/><path id="gge223" fill="none" stroke-width="1" d="M4415.062 3350.918a19.685 19.685 0 0 0-19.685-19.685"/><path id="gge238" fill="none" stroke-width="1" d="M4041.493 3331.303a19.685 19.685 0 0 0-19.685 19.685"/><path id="gge253" fill="none" stroke-width="1" d="M4021.929 3539.067a19.685 19.685 0 0 0 19.685 19.685"/><path id="gge268" fill="none" stroke-width="1" d="M4395.507 3558.767a19.685 19.685 0 0 0 19.685-19.686"/></svg>