<svg xmlns="http://www.w3.org/2000/svg" width="1000" height="1000" viewBox="150 150 650 650"><path fill="#4d4d4d" d="M604.283 369.655h-72.28V284.62a102.042 102.042 0 1 0-204.083 0v85.035h-72.28a12.755 12.755 0 0 0-12.755 12.755v297.622a12.755 12.755 0 0 0 12.755 12.755h348.643a12.755 12.755 0 0 0 12.755-12.755V382.41a12.755 12.755 0 0 0-12.755-12.755zm-112.671 0h-123.3v-85.832a61.65 61.65 0 1 1 123.3 0z"/><path fill="#67ea94" stroke="#4d4d4d" stroke-width="8.5" d="M540.019 526.745c0 10.204 0 20.094 3.218 29.356-33.831 39.718-131.477 152.67-131.477 152.67l2.276 28.494s27.316 25.903 31.398 21.978c12.088-11.774 19.466-19.78 19.466-19.78l5.683-34.027 36.978-2.724 2.967-36.735 38.957-.746.384-39.317 41.359 1.648 7.064-14.788c12.167 5.259 23.234 7.378 37.442 7.378 53.768 0 97.332-41.915 97.332-93.564 0-51.649-43.596-93.408-97.364-93.408s-95.683 41.916-95.683 93.565zm148.156-18.21a30.495 30.495 0 1 1-30.495-30.495 30.463 30.463 0 0 1 30.495 30.494z"/></svg>