<svg xmlns="http://www.w3.org/2000/svg" width="1000" height="1000" viewBox="150 150 650 650"><path fill="#67ea94" stroke="#4d4d4d" stroke-linejoin="round" stroke-width="29.792" d="M585.204 337.464v148.4A52.285 52.285 0 0 1 533.068 538H379.313a7.448 7.448 0 0 0-4.777 1.73l-9.228 7.694v20.928a52.285 52.285 0 0 0 52.136 52.136h153.755a7.448 7.448 0 0 1 4.775 1.73l87.254 72.75v-74.48h37.24a52.285 52.285 0 0 0 52.136-52.136V389.6a52.285 52.285 0 0 0-52.136-52.136z"/><path fill="none" stroke="#4d4d4d" stroke-linejoin="round" stroke-width="29.792" d="M532.556 255.034H249.532a52.285 52.285 0 0 0-52.136 52.136v178.752a52.285 52.285 0 0 0 52.136 52.136h37.24v74.48l87.253-72.748a7.448 7.448 0 0 1 4.776-1.732h153.755a52.285 52.285 0 0 0 52.136-52.136V307.17a52.285 52.285 0 0 0-52.136-52.136z"/><g fill="#4d4d4d"><circle cx="301.668" cy="396.546" r="29.792"/><circle cx="391.044" cy="396.546" r="29.792"/><circle cx="480.42" cy="396.546" r="29.792"/></g></svg>