<svg xmlns="http://www.w3.org/2000/svg" width="1000" height="1000" viewBox="150 150 650 650"><g stroke-width=".65" transform="matrix(-2403.8462 0 0 0 -624628.82 150)"><circle cx="-259.908" cy="348.214" r="72.8"/><path d="M-259.908 441.814c-45.123 0-135.2 27.872-135.2 83.2v41.6h270.4v-41.6c0-55.328-90.077-83.2-135.2-83.2z"/></g><g fill="#67ea94" transform="translate(-72.894 73.325)"><circle cx="809.715" cy="368.657" r="23.734"/><circle cx="682.328" cy="210.171" r="23.734"/><circle cx="682.328" cy="369.754" r="23.734"/></g><g fill="#4d4d4d" stroke-width=".65" transform="translate(174.183 59.196) scale(1.42001)"><circle cx="94.257" cy="296.297" r="46.8"/><path d="M147.557 369.097c-18.304-9.295-38.506-13-53.3-13-28.977 0-88.4 17.771-88.4 53.3v27.3h97.5v-10.445c0-12.35 5.2-24.733 14.3-35.055 7.26-8.242 17.426-15.892 29.9-22.1z"/><path d="M216.457 363.897c-33.846 0-101.4 20.904-101.4 62.4v31.2h202.8v-31.2c0-41.496-67.555-62.4-101.4-62.4z"/><circle cx="216.457" cy="285.897" r="57.2"/></g><path fill="#4d4d4d" d="M641.245 283.601a31.564 31.564 0 1 0-47.839 27.032v103.47a31.564 31.564 0 1 0 31.564 0V311.22a31.593 31.593 0 0 0 16.275-27.619zm-31.564-15.781A15.782 15.782 0 1 1 593.9 283.6a15.782 15.782 0 0 1 15.782-15.781zm-.493 189.382a15.782 15.782 0 1 1 15.782-15.782 15.782 15.782 0 0 1-15.782 15.782zm142.53-43.099v-100.91a45.422 45.422 0 0 0-45.373-45.373h-17.261v-26.667l-43.331 42.448 43.33 42.449v-26.667h17.262a13.81 13.81 0 0 1 13.81 13.81v100.91a31.564 31.564 0 1 0 31.563 0zm-15.782 43.1a15.782 15.782 0 1 1 15.782-15.783 15.782 15.782 0 0 1-15.782 15.782z"/></svg>