<svg xmlns="http://www.w3.org/2000/svg" width="1000" height="1000" viewBox="150 150 650 650"><g fill="#67ea94"><path stroke="#000" stroke-opacity=".894" stroke-width="2.126" d="M655.366 295.917h102.8v193.768h-102.8z"/><rect width="376.029" height="274.791" x="225.888" y="362.06" stroke="#4d4d4d" stroke-linejoin="round" stroke-width="28.925" rx="29.052"/><path stroke="#4d4d4d" stroke-linecap="round" stroke-miterlimit="10" stroke-width="28.925" d="M196.963 651.313h433.88"/></g><path fill="#4d4d4d" stroke="#2c2d3c" stroke-width=".417" d="M759.782 284.433H654.649a7.51 7.51 0 0 0-7.509 7.51v198.583a7.51 7.51 0 0 0 7.51 7.51h105.132a7.51 7.51 0 0 0 7.51-7.51V291.942a7.51 7.51 0 0 0-7.51-7.509zm-97.623 186.902V311.133h90.113v160.202z"/><path fill="#2c2d3c" fill-rule="evenodd" d="m712.75 387.104-8.818 12.933-2.577-1.758 10.105-14.818a1.56 1.56 0 0 1 2.575-.003l10.128 14.796-2.573 1.762zm-19.815 12.949 10.788-15.82-2.667-1.818-10.788 15.82zM443.42 477.429l-47.027 68.965-13.741-9.37 53.884-79.021a8.315 8.315 0 0 1 13.732-.013l54.008 78.897-13.724 9.395zm-105.67 69.054 57.526-84.359-14.22-9.697-57.527 84.359z" clip-rule="evenodd"/></svg>