<svg xmlns="http://www.w3.org/2000/svg" width="1200" height="800" viewBox="-35.2 -41.333 305.067 248"><path fill="#fff" d="M93.333 117.559V47.775l61.334 34.893zm136.43-91.742c-2.699-10.162-10.651-18.165-20.747-20.881C190.716 0 117.333 0 117.333 0S43.951 0 25.651 4.936C15.555 7.652 7.603 15.655 4.904 25.817 0 44.236 0 82.667 0 82.667s0 38.429 4.904 56.849c2.699 10.163 10.65 18.165 20.747 20.883 18.3 4.934 91.682 4.934 91.682 4.934s73.383 0 91.683-4.934c10.096-2.718 18.048-10.72 20.747-20.883 4.904-18.42 4.904-56.85 4.904-56.85s0-38.43-4.904-56.849"/></svg>